<svg width="789" height="651" viewBox="0 0 789 651" fill="none" xmlns="http://www.w3.org/2000/svg">
<mask id="mask0_0_11" style="mask-type:alpha" maskUnits="userSpaceOnUse" x="259" y="296" width="254" height="218">
<path d="M402.995 304.139H368.634C312.516 304.139 267.024 349.353 267.024 405.127C267.024 460.901 312.516 506.115 368.634 506.115H402.995C459.113 506.115 504.606 460.901 504.606 405.127C504.606 349.353 459.113 304.139 402.995 304.139Z" stroke="black" stroke-width="15.0196"/>
</mask>
<g mask="url(#mask0_0_11)">
<path d="M434.412 310.485H335.256C286.457 310.485 246.898 349.801 246.898 398.3V411.961C246.898 460.46 286.457 499.776 335.256 499.776H434.412C483.21 499.776 522.769 460.46 522.769 411.961V398.3C522.769 349.801 483.21 310.485 434.412 310.485Z" fill="url(#paint0_linear_0_11)"/>
</g>
<path d="M433.918 278.331C424.776 278.836 418.046 279.845 413.729 281.36C409.666 282.874 406.872 285.777 405.349 290.067C403.825 294.358 403.063 301.299 403.063 310.89V498.674C403.063 508.266 403.825 515.207 405.349 519.497C406.872 523.788 409.666 526.691 413.729 528.206C418.046 529.72 424.776 530.729 433.918 531.234V538.806C422.237 538.049 406.11 537.67 385.54 537.67C363.7 537.67 347.447 538.049 336.781 538.806V531.234C345.923 530.729 352.526 529.72 356.589 528.206C360.907 526.691 363.828 523.788 365.351 519.497C366.875 515.207 367.637 508.266 367.637 498.674V310.89C367.637 301.299 366.875 294.358 365.351 290.067C363.828 285.777 360.907 282.874 356.589 281.36C352.526 279.845 345.923 278.836 336.781 278.331V270.759C347.447 271.516 363.7 271.894 385.54 271.894C405.857 271.894 421.982 271.516 433.918 270.759V278.331Z" fill="url(#paint1_linear_0_11)"/>
<path d="M297.753 602.833H291.817V635.603H297.753V602.833ZM309.718 621.202C309.718 617.65 311.862 615.602 314.918 615.602C317.91 615.602 319.702 617.57 319.702 620.85V635.603H325.495V619.954C325.511 614.066 322.151 610.706 317.078 610.706C313.398 610.706 310.87 612.466 309.75 615.202H309.462V611.026H303.925V635.603H309.718V621.202ZM343.656 611.026H338.808V605.137H333.015V611.026H329.527V615.506H333.015V629.171C332.983 633.795 336.343 636.067 340.696 635.939C342.344 635.891 343.48 635.571 344.104 635.363L343.128 630.835C342.808 630.915 342.152 631.059 341.432 631.059C339.976 631.059 338.808 630.547 338.808 628.211V615.506H343.656V611.026ZM359.117 636.083C364.845 636.083 368.782 633.283 369.806 629.011L364.397 628.403C363.613 630.483 361.693 631.571 359.197 631.571C355.453 631.571 352.973 629.107 352.925 624.899H370.046V623.122C370.046 614.498 364.861 610.706 358.813 610.706C351.772 610.706 347.18 615.874 347.18 623.458C347.18 631.171 351.708 636.083 359.117 636.083ZM352.941 620.994C353.117 617.858 355.437 615.218 358.893 615.218C362.221 615.218 364.461 617.65 364.493 620.994H352.941ZM374.946 635.603H380.738V621.154C380.738 618.034 383.09 615.826 386.275 615.826C387.251 615.826 388.467 616.002 388.963 616.162V610.834C388.435 610.738 387.523 610.674 386.883 610.674C384.066 610.674 381.714 612.274 380.818 615.122H380.562V611.026H374.946V635.603ZM402.52 636.083C408.696 636.083 412.632 632.419 413.048 627.203H407.512C407.016 629.843 405.112 631.363 402.568 631.363C398.951 631.363 396.615 628.339 396.615 623.314C396.615 618.354 398.999 615.378 402.568 615.378C405.352 615.378 407.064 617.17 407.512 619.538H413.048C412.648 614.21 408.488 610.706 402.488 610.706C395.287 610.706 390.743 615.906 390.743 623.41C390.743 630.851 395.175 636.083 402.52 636.083ZM428.525 636.083C435.726 636.083 440.302 631.011 440.302 623.41C440.302 615.794 435.726 610.706 428.525 610.706C421.325 610.706 416.749 615.794 416.749 623.41C416.749 631.011 421.325 636.083 428.525 636.083ZM428.557 631.443C424.573 631.443 422.621 627.891 422.621 623.394C422.621 618.898 424.573 615.298 428.557 615.298C432.478 615.298 434.43 618.898 434.43 623.394C434.43 627.891 432.478 631.443 428.557 631.443ZM445.218 635.603H451.011V620.658C451.011 617.634 453.027 615.586 455.523 615.586C457.971 615.586 459.651 617.234 459.651 619.762V635.603H465.332V620.274C465.332 617.506 466.98 615.586 469.78 615.586C472.116 615.586 473.972 616.962 473.972 620.002V635.603H479.781V619.106C479.781 613.618 476.612 610.706 472.1 610.706C468.532 610.706 465.812 612.466 464.724 615.202H464.468C463.524 612.418 461.139 610.706 457.827 610.706C454.531 610.706 452.067 612.402 451.043 615.202H450.755V611.026H445.218V635.603Z" fill="url(#paint2_linear_0_11)"/>
<g filter="url(#filter0_d_0_11)">
<circle cx="90.2205" cy="321.22" r="40.2205" fill="white"/>
<g filter="url(#filter1_i_0_11)">
<path d="M90.2205 361.441C68.0062 361.441 50 343.435 50 321.22C50 299.006 68.0062 281 90.2205 281C112.435 281 130.441 299.006 130.441 321.22C130.441 343.435 112.435 361.441 90.2205 361.441ZM80.457 317.208L90.2205 307.445L99.989 317.214L105.67 311.532L90.2205 296.083L74.7758 311.527L80.457 317.208ZM65.0827 321.22L70.7638 326.902L76.445 321.22L70.7638 315.539L65.0827 321.22ZM80.457 325.232L74.7683 330.906L74.7758 330.914L90.2205 346.358L105.67 330.909V330.906L99.989 325.225L90.2205 334.996L80.457 325.232ZM103.996 321.22L109.677 326.902L115.358 321.22L109.677 315.539L103.996 321.22ZM95.9821 321.215H95.9846L90.2205 315.454L85.9596 319.712L85.4694 320.202L84.4614 321.213L84.4514 321.22L84.4614 321.228L90.218 326.987L95.9846 321.223L95.9871 321.22L95.9821 321.218V321.215Z" fill="#E7B12D"/>
</g>
</g>
<path d="M65.8633 403.828H71.9961C75.7148 403.828 77.3945 401.977 77.3945 399.523C77.3945 397.047 75.6602 395.648 74.0742 395.562V395.406C75.543 395.031 76.7695 394.031 76.7695 392.031C76.7695 389.664 75.1289 387.828 71.7227 387.828H65.8633V403.828ZM68.2773 401.758V396.633H71.8477C73.7852 396.633 74.9961 397.883 74.9961 399.406C74.9961 400.75 74.082 401.758 71.7617 401.758H68.2773ZM68.2773 394.75V389.883H71.5742C73.4883 389.883 74.4023 390.891 74.4023 392.219C74.4023 393.766 73.1367 394.75 71.5117 394.75H68.2773ZM93.1719 387.828H90.7812V399.578H90.6328L82.4922 387.828H80.2578V403.828H82.6719V392.094H82.8203L90.9531 403.828H93.1719V387.828ZM96.6934 403.828H102.826C106.545 403.828 108.225 401.977 108.225 399.523C108.225 397.047 106.49 395.648 104.904 395.562V395.406C106.373 395.031 107.6 394.031 107.6 392.031C107.6 389.664 105.959 387.828 102.553 387.828H96.6934V403.828ZM99.1074 401.758V396.633H102.678C104.615 396.633 105.826 397.883 105.826 399.406C105.826 400.75 104.912 401.758 102.592 401.758H99.1074ZM99.1074 394.75V389.883H102.404C104.318 389.883 105.232 390.891 105.232 392.219C105.232 393.766 103.967 394.75 102.342 394.75H99.1074Z" fill="white"/>
<g filter="url(#filter2_d_0_11)">
<path d="M202.189 195.409C224.402 195.409 242.409 177.402 242.409 155.189C242.409 132.976 224.402 114.968 202.189 114.968C179.976 114.968 161.968 132.976 161.968 155.189C161.968 177.402 179.976 195.409 202.189 195.409Z" fill="#627EEA"/>
</g>
<g filter="url(#filter3_d_0_11)">
<path d="M203.441 125.023V147.321L222.286 155.742L203.441 125.023Z" fill="white" fill-opacity="0.602"/>
<path d="M203.441 125.023L184.593 155.742L203.441 147.321V125.023Z" fill="white"/>
<path d="M203.441 170.193V185.344L222.299 159.253L203.441 170.193Z" fill="white" fill-opacity="0.602"/>
<path d="M203.441 185.344V170.191L184.593 159.254L203.441 185.344Z" fill="white"/>
<path d="M203.441 166.686L222.286 155.744L203.441 147.328V166.686Z" fill="white" fill-opacity="0.2"/>
<path d="M184.593 155.744L203.441 166.686V147.328L184.593 155.744Z" fill="white" fill-opacity="0.602"/>
</g>
<path d="M179.816 237.523H189.941V235.445H182.23V230.547H189.324V228.477H182.23V223.602H189.848V221.523H179.816V237.523ZM192.283 223.602H197.268V237.523H199.674V223.602H204.666V221.523H192.283V223.602ZM207.402 237.523H209.816V230.547H217.793V237.523H220.215V221.523H217.793V228.477H209.816V221.523H207.402V237.523Z" fill="white"/>
<g filter="url(#filter4_d_0_11)">
<path d="M403.836 126.106C423.826 116.14 432.054 92.0618 422.214 72.3265C412.375 52.5913 388.193 44.6721 368.204 54.6384C348.215 64.6047 339.987 88.6826 349.826 108.418C359.666 128.153 383.847 136.072 403.836 126.106Z" fill="#8247E5"/>
</g>
<g filter="url(#filter5_d_0_11)">
<path d="M394.19 76.7619C393.073 76.6962 391.944 77.2588 391.238 78.2335L386.372 85.4323L383.014 90.2193L378.149 97.4181C377.529 98.3495 376.401 98.9122 375.197 98.8897L368.323 98.5816C367.207 98.5158 366.143 97.9046 365.646 96.9074L362.704 91.0072C362.207 90.01 362.272 88.8362 362.979 87.8615L366.824 82.3126C367.443 81.3812 368.572 80.8185 369.776 80.841L376.521 81.1093C377.638 81.1751 378.701 81.7863 379.199 82.7834L381.105 86.6061L384.421 81.736L382.515 77.9133C382.018 76.9161 381.041 76.2616 379.838 76.2391L367.294 75.6454C366.177 75.5796 365.048 76.1423 364.342 77.117L357.093 87.5793C356.387 88.554 356.322 89.7278 356.819 90.725L362.329 101.778C362.827 102.775 363.803 103.429 365.007 103.452L377.725 103.959C378.842 104.025 379.97 103.462 380.676 102.487L385.583 95.3716L388.9 90.5015L393.807 83.3858C394.426 82.4544 395.555 81.8917 396.758 81.9142L403.504 82.1825C404.621 82.2483 405.684 82.8594 406.181 83.8567L409.123 89.7569C409.62 90.7541 409.555 91.9279 408.849 92.9026L405.045 98.5346C404.425 99.466 403.297 100.029 402.093 100.006L395.348 99.7379C394.231 99.6721 393.167 99.061 392.67 98.0638L390.764 94.2411L387.448 99.1112L389.354 102.934C389.851 103.931 390.828 104.586 392.031 104.608L404.749 105.115C405.866 105.181 406.994 104.618 407.701 103.644L414.949 93.1814C415.569 92.2499 415.721 91.0328 415.224 90.0356L409.713 78.9831C409.216 77.9858 408.239 77.3314 407.036 77.3089L394.19 76.7619Z" fill="white"/>
</g>
<path d="M359.041 155.591V171.591H361.338V160.005H361.486L366.205 171.567H368.111L372.83 160.013H372.978V171.591H375.275V155.591H372.346L367.252 168.028H367.064L361.971 155.591H359.041ZM382.09 171.856C384.074 171.856 385.191 170.849 385.637 169.95H385.73V171.591H388.012V163.622C388.012 160.13 385.262 159.434 383.355 159.434C381.183 159.434 379.183 160.309 378.402 162.497L380.598 162.997C380.941 162.145 381.816 161.325 383.387 161.325C384.894 161.325 385.668 162.114 385.668 163.474V163.528C385.668 164.38 384.793 164.364 382.637 164.614C380.363 164.88 378.035 165.474 378.035 168.2C378.035 170.559 379.808 171.856 382.09 171.856ZM382.598 169.981C381.277 169.981 380.324 169.388 380.324 168.231C380.324 166.981 381.433 166.536 382.785 166.356C383.543 166.255 385.34 166.052 385.676 165.716V167.263C385.676 168.684 384.543 169.981 382.598 169.981ZM396.724 159.591H394.264V156.716H391.928V159.591H390.17V161.466H391.928V168.552C391.92 170.731 393.584 171.786 395.428 171.747C396.17 171.739 396.67 171.599 396.943 171.497L396.521 169.567C396.365 169.599 396.076 169.669 395.701 169.669C394.943 169.669 394.264 169.419 394.264 168.067V161.466H396.724V159.591ZM399.308 171.591H401.644V159.591H399.308V171.591ZM400.488 157.739C401.293 157.739 401.965 157.114 401.965 156.349C401.965 155.583 401.293 154.95 400.488 154.95C399.676 154.95 399.012 155.583 399.012 156.349C399.012 157.114 399.676 157.739 400.488 157.739ZM409.842 171.833C412.678 171.833 414.514 170.13 414.771 167.794H412.498C412.201 169.091 411.193 169.856 409.857 169.856C407.881 169.856 406.607 168.208 406.607 165.591C406.607 163.02 407.904 161.403 409.857 161.403C411.342 161.403 412.248 162.341 412.498 163.466H414.771C414.521 161.044 412.545 159.434 409.818 159.434C406.435 159.434 404.248 161.981 404.248 165.645C404.248 169.263 406.357 171.833 409.842 171.833Z" fill="white"/>
<g filter="url(#filter6_d_0_11)">
<path d="M577.343 193.267C599.556 193.267 617.563 175.26 617.563 153.046C617.563 130.833 599.556 112.826 577.343 112.826C555.129 112.826 537.122 130.833 537.122 153.046C537.122 175.26 555.129 193.267 577.343 193.267Z" fill="#13B5EC"/>
</g>
<g filter="url(#filter7_d_0_11)">
<path fill-rule="evenodd" clip-rule="evenodd" d="M580.359 145.254L589.409 139.975V150.533L580.359 145.254ZM589.409 167.878L577.343 174.916L565.277 167.878V155.56L577.343 162.599L589.409 155.56V167.878ZM565.277 139.975L574.326 145.254L565.277 150.533V139.975ZM578.851 147.768L587.901 153.047L578.851 158.325V147.768ZM575.835 158.325L566.785 153.047L575.835 147.768V158.325ZM587.901 137.461L577.343 143.494L566.785 137.461L577.343 131.177L587.901 137.461ZM562.26 136.456V169.386L577.343 177.933L592.425 169.386V136.456L577.343 127.909L562.26 136.456Z" fill="white"/>
</g>
<path d="M540.936 228.672H543.35V221.695H550.147V219.625H543.35V214.75H550.858V212.672H540.936V228.672ZM557.088 228.938C559.073 228.938 560.19 227.93 560.635 227.031H560.729V228.672H563.01V220.703C563.01 217.211 560.26 216.516 558.354 216.516C556.182 216.516 554.182 217.391 553.401 219.578L555.596 220.078C555.94 219.227 556.815 218.406 558.385 218.406C559.893 218.406 560.666 219.195 560.666 220.555V220.609C560.666 221.461 559.791 221.445 557.635 221.695C555.362 221.961 553.034 222.555 553.034 225.281C553.034 227.641 554.807 228.938 557.088 228.938ZM557.596 227.062C556.276 227.062 555.323 226.469 555.323 225.312C555.323 224.062 556.432 223.617 557.784 223.437C558.541 223.336 560.338 223.133 560.674 222.797V224.344C560.674 225.766 559.541 227.062 557.596 227.062ZM568.457 221.547C568.457 219.633 569.629 218.539 571.254 218.539C572.84 218.539 573.801 219.578 573.801 221.32V228.672H576.137V221.039C576.137 218.07 574.504 216.516 572.051 216.516C570.247 216.516 569.067 217.352 568.512 218.625H568.364V216.672H566.122V228.672H568.457V221.547ZM584.872 216.672H582.411V213.797H580.075V216.672H578.317V218.547H580.075V225.633C580.067 227.812 581.731 228.867 583.575 228.828C584.317 228.82 584.817 228.68 585.09 228.578L584.668 226.648C584.512 226.68 584.223 226.75 583.848 226.75C583.09 226.75 582.411 226.5 582.411 225.148V218.547H584.872V216.672ZM592.381 228.914C595.764 228.914 597.975 226.438 597.975 222.727C597.975 218.992 595.764 216.516 592.381 216.516C588.999 216.516 586.788 218.992 586.788 222.727C586.788 226.438 588.999 228.914 592.381 228.914ZM592.389 226.953C590.178 226.953 589.147 225.023 589.147 222.719C589.147 220.422 590.178 218.469 592.389 218.469C594.584 218.469 595.616 220.422 595.616 222.719C595.616 225.023 594.584 226.953 592.389 226.953ZM600.582 228.672H602.918V221.273C602.918 219.656 604.051 218.531 605.379 218.531C606.676 218.531 607.575 219.391 607.575 220.695V228.672H609.903V221.023C609.903 219.578 610.786 218.531 612.309 218.531C613.543 218.531 614.559 219.219 614.559 220.844V228.672H616.895V220.625C616.895 217.883 615.364 216.516 613.192 216.516C611.465 216.516 610.168 217.344 609.59 218.625H609.465C608.942 217.312 607.84 216.516 606.239 216.516C604.653 216.516 603.473 217.305 602.973 218.625H602.825V216.672H600.582V228.672Z" fill="white"/>
<g filter="url(#filter8_d_0_11)">
<path d="M698.409 371.2C720.622 371.2 738.629 353.193 738.629 330.98C738.629 308.767 720.622 290.76 698.409 290.76C676.196 290.76 658.188 308.767 658.188 330.98C658.188 353.193 676.196 371.2 698.409 371.2Z" fill="#0093DD"/>
</g>
<g filter="url(#filter9_d_0_11)">
<path fill-rule="evenodd" clip-rule="evenodd" d="M692.125 330.98L705.196 344.303L713.492 336.007C715 334.499 717.262 334.499 718.519 336.007C720.028 337.516 720.028 340.029 718.519 341.538L707.71 352.598C706.202 354.107 703.939 354.107 702.431 352.598L686.846 336.51V346.063C686.846 348.074 685.086 349.833 683.075 349.833C681.064 349.833 679.304 348.074 679.304 346.063V315.897C679.304 313.886 681.064 312.127 683.075 312.127C685.086 312.127 686.846 313.886 686.846 315.897V325.45L702.431 309.361C703.939 307.853 706.202 307.853 707.71 309.361L718.519 320.422C720.028 321.93 720.028 324.444 718.519 325.952C717.011 327.461 714.749 327.461 713.492 325.952L705.196 317.405L692.125 330.98ZM705.196 327.209C707.207 327.209 708.967 328.969 708.967 330.98C708.967 332.991 707.207 334.751 705.196 334.751C703.185 334.751 701.426 332.991 701.426 330.98C701.426 328.969 703.185 327.209 705.196 327.209Z" fill="white"/>
</g>
<path d="M665.187 413.313H667.601V408.336L669.492 406.164L674.663 413.313H677.57L671.093 404.516L677.546 397.313H674.507L667.796 404.953H667.601V397.313H665.187V413.313ZM686.458 408.336C686.466 410.375 684.951 411.344 683.638 411.344C682.193 411.344 681.193 410.297 681.193 408.664V401.313H678.857V408.945C678.857 411.922 680.49 413.469 682.794 413.469C684.599 413.469 685.826 412.516 686.38 411.234H686.505V413.313H688.802V401.313H686.458V408.336ZM696.996 413.555C699.831 413.555 701.667 411.852 701.925 409.516H699.652C699.355 410.813 698.347 411.578 697.011 411.578C695.035 411.578 693.761 409.93 693.761 407.313C693.761 404.742 695.058 403.125 697.011 403.125C698.496 403.125 699.402 404.063 699.652 405.188H701.925C701.675 402.766 699.699 401.156 696.972 401.156C693.589 401.156 691.402 403.703 691.402 407.367C691.402 410.984 693.511 413.555 696.996 413.555ZM709.478 413.555C712.861 413.555 715.072 411.078 715.072 407.367C715.072 403.633 712.861 401.156 709.478 401.156C706.095 401.156 703.884 403.633 703.884 407.367C703.884 411.078 706.095 413.555 709.478 413.555ZM709.486 411.594C707.275 411.594 706.244 409.664 706.244 407.359C706.244 405.063 707.275 403.109 709.486 403.109C711.681 403.109 712.712 405.063 712.712 407.359C712.712 409.664 711.681 411.594 709.486 411.594ZM717.679 413.313H720.015V401.313H717.679V413.313ZM718.859 399.461C719.663 399.461 720.335 398.836 720.335 398.07C720.335 397.305 719.663 396.672 718.859 396.672C718.046 396.672 717.382 397.305 717.382 398.07C717.382 398.836 718.046 399.461 718.859 399.461ZM725.494 406.188C725.494 404.273 726.665 403.18 728.29 403.18C729.876 403.18 730.837 404.219 730.837 405.961V413.313H733.173V405.68C733.173 402.711 731.54 401.156 729.087 401.156C727.283 401.156 726.103 401.992 725.548 403.266H725.4V401.313H723.158V413.313H725.494V406.188Z" fill="white"/>
<defs>
<filter id="filter0_d_0_11" x="0" y="231" width="180.441" height="180.441" filterUnits="userSpaceOnUse" color-interpolation-filters="sRGB">
<feFlood flood-opacity="0" result="BackgroundImageFix"/>
<feColorMatrix in="SourceAlpha" type="matrix" values="0 0 0 0 0 0 0 0 0 0 0 0 0 0 0 0 0 0 127 0" result="hardAlpha"/>
<feOffset/>
<feGaussianBlur stdDeviation="25"/>
<feComposite in2="hardAlpha" operator="out"/>
<feColorMatrix type="matrix" values="0 0 0 0 0.905882 0 0 0 0 0.694118 0 0 0 0 0.176471 0 0 0 0.5 0"/>
<feBlend mode="normal" in2="BackgroundImageFix" result="effect1_dropShadow_0_11"/>
<feBlend mode="normal" in="SourceGraphic" in2="effect1_dropShadow_0_11" result="shape"/>
</filter>
<filter id="filter1_i_0_11" x="50" y="281" width="80.441" height="84.441" filterUnits="userSpaceOnUse" color-interpolation-filters="sRGB">
<feFlood flood-opacity="0" result="BackgroundImageFix"/>
<feBlend mode="normal" in="SourceGraphic" in2="BackgroundImageFix" result="shape"/>
<feColorMatrix in="SourceAlpha" type="matrix" values="0 0 0 0 0 0 0 0 0 0 0 0 0 0 0 0 0 0 127 0" result="hardAlpha"/>
<feOffset dy="4"/>
<feGaussianBlur stdDeviation="2"/>
<feComposite in2="hardAlpha" operator="arithmetic" k2="-1" k3="1"/>
<feColorMatrix type="matrix" values="0 0 0 0 0.6125 0 0 0 0 0.520181 0 0 0 0 0.29451 0 0 0 0.5 0"/>
<feBlend mode="normal" in2="shape" result="effect1_innerShadow_0_11"/>
</filter>
<filter id="filter2_d_0_11" x="111.968" y="64.9683" width="180.441" height="180.441" filterUnits="userSpaceOnUse" color-interpolation-filters="sRGB">
<feFlood flood-opacity="0" result="BackgroundImageFix"/>
<feColorMatrix in="SourceAlpha" type="matrix" values="0 0 0 0 0 0 0 0 0 0 0 0 0 0 0 0 0 0 127 0" result="hardAlpha"/>
<feOffset/>
<feGaussianBlur stdDeviation="25"/>
<feComposite in2="hardAlpha" operator="out"/>
<feColorMatrix type="matrix" values="0 0 0 0 0.384314 0 0 0 0 0.494118 0 0 0 0 0.917647 0 0 0 0.5 0"/>
<feBlend mode="normal" in2="BackgroundImageFix" result="effect1_dropShadow_0_11"/>
<feBlend mode="normal" in="SourceGraphic" in2="effect1_dropShadow_0_11" result="shape"/>
</filter>
<filter id="filter3_d_0_11" x="174.593" y="115.023" width="57.7067" height="80.321" filterUnits="userSpaceOnUse" color-interpolation-filters="sRGB">
<feFlood flood-opacity="0" result="BackgroundImageFix"/>
<feColorMatrix in="SourceAlpha" type="matrix" values="0 0 0 0 0 0 0 0 0 0 0 0 0 0 0 0 0 0 127 0" result="hardAlpha"/>
<feOffset/>
<feGaussianBlur stdDeviation="5"/>
<feComposite in2="hardAlpha" operator="out"/>
<feColorMatrix type="matrix" values="0 0 0 0 0.141896 0 0 0 0 0.192743 0 0 0 0 0.408333 0 0 0 0.25 0"/>
<feBlend mode="normal" in2="BackgroundImageFix" result="effect1_dropShadow_0_11"/>
<feBlend mode="normal" in="SourceGraphic" in2="effect1_dropShadow_0_11" result="shape"/>
</filter>
<filter id="filter4_d_0_11" x="295.67" y="0.33168" width="180.701" height="180.081" filterUnits="userSpaceOnUse" color-interpolation-filters="sRGB">
<feFlood flood-opacity="0" result="BackgroundImageFix"/>
<feColorMatrix in="SourceAlpha" type="matrix" values="0 0 0 0 0 0 0 0 0 0 0 0 0 0 0 0 0 0 127 0" result="hardAlpha"/>
<feOffset/>
<feGaussianBlur stdDeviation="25"/>
<feComposite in2="hardAlpha" operator="out"/>
<feColorMatrix type="matrix" values="0 0 0 0 0.439216 0 0 0 0 0.243137 0 0 0 0 0.772549 0 0 0 0.5 0"/>
<feBlend mode="normal" in2="BackgroundImageFix" result="effect1_dropShadow_0_11"/>
<feBlend mode="normal" in="SourceGraphic" in2="effect1_dropShadow_0_11" result="shape"/>
</filter>
<filter id="filter5_d_0_11" x="350.496" y="73.6402" width="71.0248" height="41.4802" filterUnits="userSpaceOnUse" color-interpolation-filters="sRGB">
<feFlood flood-opacity="0" result="BackgroundImageFix"/>
<feColorMatrix in="SourceAlpha" type="matrix" values="0 0 0 0 0 0 0 0 0 0 0 0 0 0 0 0 0 0 127 0" result="hardAlpha"/>
<feOffset dy="4"/>
<feGaussianBlur stdDeviation="3"/>
<feComposite in2="hardAlpha" operator="out"/>
<feColorMatrix type="matrix" values="0 0 0 0 0.152768 0 0 0 0 0.0848889 0 0 0 0 0.266667 0 0 0 0.5 0"/>
<feBlend mode="normal" in2="BackgroundImageFix" result="effect1_dropShadow_0_11"/>
<feBlend mode="normal" in="SourceGraphic" in2="effect1_dropShadow_0_11" result="shape"/>
</filter>
<filter id="filter6_d_0_11" x="487.122" y="62.8259" width="180.441" height="180.441" filterUnits="userSpaceOnUse" color-interpolation-filters="sRGB">
<feFlood flood-opacity="0" result="BackgroundImageFix"/>
<feColorMatrix in="SourceAlpha" type="matrix" values="0 0 0 0 0 0 0 0 0 0 0 0 0 0 0 0 0 0 127 0" result="hardAlpha"/>
<feOffset/>
<feGaussianBlur stdDeviation="25"/>
<feComposite in2="hardAlpha" operator="out"/>
<feColorMatrix type="matrix" values="0 0 0 0 0.0745098 0 0 0 0 0.709804 0 0 0 0 0.92549 0 0 0 0.5 0"/>
<feBlend mode="normal" in2="BackgroundImageFix" result="effect1_dropShadow_0_11"/>
<feBlend mode="normal" in="SourceGraphic" in2="effect1_dropShadow_0_11" result="shape"/>
</filter>
<filter id="filter7_d_0_11" x="556.26" y="125.909" width="42.1654" height="62.0242" filterUnits="userSpaceOnUse" color-interpolation-filters="sRGB">
<feFlood flood-opacity="0" result="BackgroundImageFix"/>
<feColorMatrix in="SourceAlpha" type="matrix" values="0 0 0 0 0 0 0 0 0 0 0 0 0 0 0 0 0 0 127 0" result="hardAlpha"/>
<feOffset dy="4"/>
<feGaussianBlur stdDeviation="3"/>
<feComposite in2="hardAlpha" operator="out"/>
<feColorMatrix type="matrix" values="0 0 0 0 0.0197084 0 0 0 0 0.107507 0 0 0 0 0.1375 0 0 0 0.5 0"/>
<feBlend mode="normal" in2="BackgroundImageFix" result="effect1_dropShadow_0_11"/>
<feBlend mode="normal" in="SourceGraphic" in2="effect1_dropShadow_0_11" result="shape"/>
</filter>
<filter id="filter8_d_0_11" x="608.188" y="240.76" width="180.441" height="180.441" filterUnits="userSpaceOnUse" color-interpolation-filters="sRGB">
<feFlood flood-opacity="0" result="BackgroundImageFix"/>
<feColorMatrix in="SourceAlpha" type="matrix" values="0 0 0 0 0 0 0 0 0 0 0 0 0 0 0 0 0 0 127 0" result="hardAlpha"/>
<feOffset/>
<feGaussianBlur stdDeviation="25"/>
<feComposite in2="hardAlpha" operator="out"/>
<feColorMatrix type="matrix" values="0 0 0 0 0 0 0 0 0 0.576471 0 0 0 0 0.866667 0 0 0 0.5 0"/>
<feBlend mode="normal" in2="BackgroundImageFix" result="effect1_dropShadow_0_11"/>
<feBlend mode="normal" in="SourceGraphic" in2="effect1_dropShadow_0_11" result="shape"/>
</filter>
<filter id="filter9_d_0_11" x="673.304" y="306.23" width="52.3462" height="57.4994" filterUnits="userSpaceOnUse" color-interpolation-filters="sRGB">
<feFlood flood-opacity="0" result="BackgroundImageFix"/>
<feColorMatrix in="SourceAlpha" type="matrix" values="0 0 0 0 0 0 0 0 0 0 0 0 0 0 0 0 0 0 127 0" result="hardAlpha"/>
<feOffset dy="4"/>
<feGaussianBlur stdDeviation="3"/>
<feComposite in2="hardAlpha" operator="out"/>
<feColorMatrix type="matrix" values="0 0 0 0 0.0322222 0 0 0 0 0.121649 0 0 0 0 0.166667 0 0 0 0.5 0"/>
<feBlend mode="normal" in2="BackgroundImageFix" result="effect1_dropShadow_0_11"/>
<feBlend mode="normal" in="SourceGraphic" in2="effect1_dropShadow_0_11" result="shape"/>
</filter>
<linearGradient id="paint0_linear_0_11" x1="246.898" y1="499.776" x2="423.514" y2="242.38" gradientUnits="userSpaceOnUse">
<stop stop-color="#3796E5"/>
<stop offset="1" stop-color="#46ECE3"/>
</linearGradient>
<linearGradient id="paint1_linear_0_11" x1="336.781" y1="538.806" x2="508.504" y2="476.575" gradientUnits="userSpaceOnUse">
<stop stop-color="#3796E5"/>
<stop offset="1" stop-color="#46ECE3"/>
</linearGradient>
<linearGradient id="paint2_linear_0_11" x1="279.943" y1="650.999" x2="310.88" y2="540.901" gradientUnits="userSpaceOnUse">
<stop stop-color="#3796E5"/>
<stop offset="1" stop-color="#46ECE3"/>
</linearGradient>
</defs>
</svg>
