<svg width="475" height="423" viewBox="0 0 475 423" fill="none" xmlns="http://www.w3.org/2000/svg">
<g clip-path="url(#clip0_219_256)">
<path d="M341.444 315.498C337.316 315.498 333.958 318.856 333.958 322.983C333.958 327.102 337.316 330.453 341.444 330.453C345.014 330.453 347.529 327.994 348.438 325.557L349.46 322.815L348.384 320.195C347.494 318.029 345.142 315.498 341.444 315.498ZM376.97 102.039C390.212 102.039 408.782 104.231 425.57 114.484C466.04 139.198 480.877 203.273 465.315 248.247C454.231 280.287 429.477 297.431 437.935 316.536C443.574 329.267 464.556 321.975 475.005 340.54C475.005 340.54 438.248 410.977 432.931 411.602C432.351 411.671 430.044 411.915 426.676 411.915C416.418 411.915 396.312 409.647 385.081 393.237C372.165 374.361 375.903 345.547 396.313 326.731C387.448 329.769 377.724 331.734 367.042 332.493C363.17 342.877 353.168 350.307 341.444 350.307C326.374 350.307 314.103 338.048 314.103 322.983C314.103 307.909 326.374 295.644 341.444 295.644C352.871 295.644 362.654 302.682 366.75 312.649C382.058 311.468 394.75 307.512 405.149 300.746C412.307 288.015 411.865 268.94 407.899 254.759C405.015 244.455 400.136 237.322 396.919 232.622C386.629 217.592 373.728 208.146 363.478 202.374C356.32 206.156 346.249 210.356 333.695 212.301C328.749 213.069 323.979 213.401 319.425 213.401C298.227 213.401 281.739 206.211 274.13 202.374C262.798 219.051 250.373 243.566 253.654 271.273C259.234 318.382 306.067 333.849 300.473 371.348C297.628 390.425 280.821 422.051 263.013 422.051C260.373 422.051 257.71 421.356 255.069 419.822C238.956 410.466 195.796 355.941 198.958 352.755C216.5 335.065 249.39 334.836 250.299 327.332C251.132 320.437 231.978 316.903 215.602 303.392C189.487 281.84 185.253 247.14 184.504 240.995C177.455 183.264 226.765 119.2 274.884 118.237C275.252 118.229 275.616 118.226 275.98 118.226C288.205 118.226 298.402 122.286 305.352 125.93C314.004 119.304 333.229 106.463 360.803 103.093C363.558 102.757 369.391 102.039 376.97 102.039Z" fill="url(#paint0_linear_219_256)"/>
<path d="M189.387 24.2391C188.041 28.2338 186.237 32.0001 183.978 35.5271C170.321 56.8457 147.336 58.6337 127.055 60.2115C113.561 61.2609 99.6065 62.3461 85.2775 68.0725C70.5067 73.9739 56.7005 84.2779 45.3502 97.8701C34.5059 110.858 26.473 126.366 22.732 141.536C19.826 153.33 19.1219 165.826 20.6409 178.677C20.7112 179.272 20.7851 179.862 20.8633 180.447C23.4222 174.035 10.2011 168.487 14.7468 163.797C29.1522 148.929 10.8867 117.539 27.1651 117.538C33.757 117.538 49.9875 71.0399 57.0466 71.3762C64.1336 71.7143 68.7458 63.2842 75.994 63.2842C89.0118 63.2842 120.62 60.8901 129.616 58.4029C145.847 53.9137 150.516 52.8764 153.677 49.6355C155.572 47.6948 160.727 55.8931 162.295 53.667L163.057 51.613H163.955C178.779 35.5875 162.404 29.8837 179.677 24.2391C178.764 15.322 185.48 28.3184 179.677 18.232C168.225 -1.67798 202.05 28.7743 189.387 24.2391ZM172.223 0C175.36 0.33264 179.862 0.962778 185.153 2.25335C195.841 4.85933 230.11 15.1239 249.31 48.5037C262.306 71.0929 262.137 93.384 261.373 103.584C241.874 105.321 222.521 117.224 206.925 134.085C205.426 136.215 203.028 139.376 199.672 142.811C196.739 145.819 184.711 157.597 162.295 163.797C149.888 167.227 137.145 168.161 124.734 168.161C109.866 168.161 95.4807 166.819 82.7519 166.819C67.2995 166.82 54.2804 168.798 45.795 177.556C27.8606 196.06 37.813 236.935 48.1278 258.104C43.4641 258.104 79.3205 294.964 77.4888 297.053C77.3161 297.25 77.0083 297.346 76.5787 297.346C71.7828 297.346 51.8197 285.336 35.6292 266.895C17.0544 245.735 11.6737 223.191 8.41747 213.433C2.96227 197.053 -4.45857 168.895 3.45368 136.785C12.4184 100.432 40.7518 64.4813 77.9105 49.6355C117.472 33.8263 152.566 47.7542 167.259 24.8177C172.754 16.2406 172.853 6.47709 172.223 0Z" fill="url(#paint1_linear_219_256)"/>
<path d="M129.882 293.316C127.286 293.316 125.63 295.103 125.001 296.634L124.252 298.456L124.966 300.37C125.607 302.086 127.375 303.817 129.882 303.817C132.14 303.817 133.504 302.433 133.985 301.837C135.031 300.542 135.369 298.99 134.992 297.229C134.609 295.449 132.981 293.828 131.209 293.459C130.752 293.364 130.306 293.316 129.882 293.316ZM41.6381 243.156C43.3607 243.156 42.7468 253.234 60.0467 268.03C67.7408 274.607 74.7151 279.521 79.9019 282.921C82.1905 283.849 84.6621 284.737 87.3082 285.542C94.446 287.706 101.033 288.693 106.637 289.085C110.401 279.929 119.387 273.462 129.882 273.462C131.636 273.462 133.432 273.643 135.253 274.022C144.714 275.992 152.373 283.611 154.404 293.057C157.888 309.292 145.528 323.672 129.882 323.672C119.111 323.672 109.923 316.847 106.364 307.312C97.5581 306.681 89.4623 305.167 82.0069 302.844C82.0014 302.844 79.5941 301.812 77.2364 300.516C59.3517 290.689 38.3 245.168 41.4369 243.213C41.4975 243.175 41.5642 243.156 41.6381 243.156Z" fill="url(#paint2_linear_219_256)"/>
<path d="M341.142 335.194C347.995 335.194 353.551 329.638 353.551 322.785C353.551 315.932 347.995 310.376 341.142 310.376C334.288 310.376 328.732 315.932 328.732 322.785C328.732 329.638 334.288 335.194 341.142 335.194Z" fill="#43DBE4"/>
<path d="M130.18 308.516C135.663 308.516 140.108 304.072 140.108 298.589C140.108 293.107 135.663 288.662 130.18 288.662C124.698 288.662 120.253 293.107 120.253 298.589C120.253 304.072 124.698 308.516 130.18 308.516Z" fill="#43DBE4"/>
</g>
<defs>
<linearGradient id="paint0_linear_219_256" x1="183.828" y1="422.051" x2="502.418" y2="132.167" gradientUnits="userSpaceOnUse">
<stop stop-color="#3796E5"/>
<stop offset="1" stop-color="#46ECE3"/>
</linearGradient>
<linearGradient id="paint1_linear_219_256" x1="0.00012207" y1="297.346" x2="294.933" y2="37.8113" gradientUnits="userSpaceOnUse">
<stop stop-color="#3796E5"/>
<stop offset="1" stop-color="#46ECE3"/>
</linearGradient>
<linearGradient id="paint2_linear_219_256" x1="41.1239" y1="323.672" x2="117.033" y2="216.314" gradientUnits="userSpaceOnUse">
<stop stop-color="#3796E5"/>
<stop offset="1" stop-color="#46ECE3"/>
</linearGradient>
<clipPath id="clip0_219_256">
<rect width="475" height="422.05" fill="white"/>
</clipPath>
</defs>
</svg>
