<svg width="800" height="565" viewBox="0 0 800 565" fill="none" xmlns="http://www.w3.org/2000/svg">
<g opacity="0.5" filter="url(#filter0_f_132_248)">
<mask id="mask0_132_248" style="mask-type:alpha" maskUnits="userSpaceOnUse" x="97" y="42" width="593" height="232">
<rect x="97" y="42.999" width="593" height="231" fill="white"/>
</mask>
<g mask="url(#mask0_132_248)">
<g clip-path="url(#clip0_132_248)">
<path d="M401.875 253.124C406.019 253.124 409.993 254.77 412.924 257.7C415.854 260.631 417.5 264.605 417.5 268.749V292.999C417.496 330.329 411.677 367.43 400.25 402.968L358.656 532.343C357.313 536.189 354.521 539.358 350.875 541.176C347.229 542.993 343.017 543.315 339.138 542.072C335.258 540.829 332.017 538.12 330.106 534.522C328.195 530.924 327.764 526.722 328.906 522.812L370.469 393.405C380.902 360.958 386.215 327.083 386.219 292.999V268.749C386.219 264.605 387.865 260.631 390.795 257.7C393.726 254.77 397.7 253.124 401.844 253.124H401.875Z" fill="url(#paint0_linear_132_248)"/>
<path d="M339.375 268.749C339.375 260.541 340.992 252.414 344.133 244.831C347.274 237.248 351.877 230.359 357.681 224.555C363.485 218.751 370.375 214.147 377.958 211.007C385.54 207.866 393.668 206.249 401.875 206.249C410.083 206.249 418.21 207.866 425.793 211.007C433.376 214.147 440.266 218.751 446.069 224.555C451.873 230.359 456.477 237.248 459.618 244.831C462.759 252.414 464.375 260.541 464.375 268.749C464.375 272.893 462.729 276.867 459.799 279.798C456.869 282.728 452.894 284.374 448.75 284.374C444.606 284.374 440.632 282.728 437.702 279.798C434.771 276.867 433.125 272.893 433.125 268.749C433.125 260.461 429.833 252.512 423.972 246.652C418.112 240.791 410.163 237.499 401.875 237.499C393.587 237.499 385.639 240.791 379.778 246.652C373.918 252.512 370.625 260.461 370.625 268.749V279.124C370.625 291.905 369.938 304.624 368.563 317.28C368.022 321.315 365.928 324.98 362.726 327.494C359.524 330.008 355.467 331.173 351.419 330.742C347.371 330.31 343.652 328.315 341.052 325.183C338.452 322.05 337.178 318.026 337.5 313.968C338.75 302.405 339.375 290.78 339.375 279.124V268.749ZM449.032 299.999C451.084 300.052 453.105 300.508 454.981 301.342C456.856 302.177 458.549 303.372 459.963 304.861C461.376 306.35 462.482 308.103 463.218 310.019C463.953 311.936 464.304 313.978 464.25 316.03C463.324 351.527 457.142 386.69 445.907 420.374L406.344 539.124C405.03 543.057 402.208 546.306 398.499 548.158C394.789 550.01 390.495 550.313 386.563 548.999C382.63 547.685 379.38 544.863 377.528 541.154C375.676 537.444 375.374 533.15 376.688 529.218L416.282 410.468C426.528 379.718 432.162 347.619 433 315.218C433.053 313.166 433.509 311.144 434.344 309.268C435.178 307.393 436.374 305.7 437.862 304.287C439.351 302.873 441.104 301.767 443.02 301.031C444.937 300.296 446.979 299.945 449.032 299.999ZM344.156 366.093C346.119 366.699 347.943 367.686 349.524 368.997C351.104 370.309 352.411 371.919 353.369 373.736C354.327 375.553 354.917 377.541 355.106 379.586C355.294 381.631 355.078 383.694 354.469 385.655L313.75 516.843C313.173 518.838 312.204 520.698 310.9 522.314C309.595 523.93 307.982 525.27 306.154 526.255C304.325 527.24 302.319 527.851 300.252 528.052C298.185 528.253 296.099 528.04 294.115 527.425C292.131 526.81 290.29 525.806 288.699 524.471C287.108 523.137 285.799 521.498 284.848 519.652C283.898 517.805 283.325 515.787 283.163 513.717C283.001 511.646 283.254 509.564 283.906 507.593L324.625 376.374C325.856 372.423 328.603 369.122 332.265 367.195C335.927 365.267 340.203 364.871 344.156 366.093Z" fill="url(#paint1_linear_132_248)"/>
<path d="M298.719 232.278C307.35 207.984 324.282 187.519 346.529 174.492C368.776 161.464 394.909 156.712 420.319 161.073C445.728 165.433 468.781 178.627 485.412 198.327C502.043 218.026 511.182 242.966 511.219 268.746C511.219 272.89 509.573 276.865 506.643 279.795C503.712 282.725 499.738 284.371 495.594 284.371C491.45 284.371 487.476 282.725 484.546 279.795C481.615 276.865 479.969 272.89 479.969 268.746C479.966 250.318 473.449 232.484 461.57 218.396C449.69 204.308 433.213 194.873 415.05 191.758C396.887 188.643 378.208 192.049 362.313 201.373C346.418 210.698 334.331 225.341 328.188 242.715C326.804 246.623 323.924 249.821 320.182 251.605C316.44 253.39 312.143 253.615 308.235 252.231C304.327 250.847 301.129 247.967 299.345 244.225C297.56 240.483 297.335 236.185 298.719 232.278ZM308.094 284.465C312.217 284.868 316.011 286.892 318.642 290.092C321.273 293.291 322.526 297.405 322.125 301.528C320.016 323.038 315.83 344.293 309.625 364.996L271.438 492.246C270.249 496.216 267.531 499.551 263.883 501.517C260.235 503.484 255.955 503.92 251.985 502.731C248.015 501.541 244.68 498.824 242.714 495.176C240.748 491.527 240.311 487.248 241.5 483.278L279.688 356.028C285.318 337.251 289.117 317.974 291.032 298.465C291.435 294.342 293.459 290.548 296.658 287.917C299.858 285.286 303.971 284.033 308.094 284.434V284.465ZM495.594 304.684C499.738 304.684 503.712 306.33 506.643 309.26C509.573 312.191 511.219 316.165 511.219 320.309C511.219 360.309 504.563 400.059 491.469 437.871L457.407 536.153C455.923 539.894 453.053 542.919 449.394 544.597C445.736 546.275 441.571 546.476 437.767 545.158C433.964 543.841 430.816 541.106 428.979 537.525C427.142 533.944 426.758 529.791 427.907 525.934L461.938 427.653C473.875 393.121 480 356.84 480 320.309C480 316.165 481.647 312.191 484.577 309.26C487.507 306.33 491.481 304.684 495.625 304.684H495.594Z" fill="url(#paint2_linear_132_248)"/>
<path d="M271.938 181.928C289.299 155.901 314.079 135.69 343.066 123.916C372.052 112.142 403.907 109.348 434.5 115.897C436.509 116.324 438.414 117.142 440.107 118.305C441.8 119.468 443.246 120.953 444.365 122.676C445.484 124.398 446.252 126.324 446.627 128.343C447.001 130.362 446.974 132.435 446.547 134.444C446.121 136.453 445.302 138.358 444.139 140.051C442.976 141.743 441.491 143.19 439.769 144.309C438.047 145.427 436.121 146.196 434.102 146.57C432.082 146.945 430.009 146.918 428 146.491C403.521 141.238 378.027 143.464 354.828 152.882C331.63 162.3 311.798 178.473 297.907 199.303C295.57 202.668 292.004 204.981 287.979 205.742C283.953 206.504 279.79 205.654 276.385 203.376C272.98 201.098 270.606 197.574 269.774 193.562C268.942 189.55 269.719 185.373 271.938 181.928ZM481.938 152.085C484.645 148.949 488.486 147.016 492.617 146.711C496.748 146.406 500.832 147.755 503.969 150.46C520.973 165.117 534.612 183.273 543.954 203.687C553.295 224.101 558.118 246.291 558.094 268.741V315.616C558.094 319.76 556.448 323.734 553.518 326.665C550.588 329.595 546.613 331.241 542.469 331.241C538.325 331.241 534.351 329.595 531.421 326.665C528.49 323.734 526.844 319.76 526.844 315.616V268.741C526.866 250.78 523.007 233.026 515.532 216.694C508.056 200.362 497.141 185.838 483.532 174.116C480.4 171.405 478.473 167.561 478.174 163.43C477.876 159.299 479.229 155.218 481.938 152.085ZM265 232.553C267.032 232.852 268.986 233.548 270.749 234.601C272.511 235.655 274.049 237.046 275.274 238.694C276.499 240.343 277.387 242.217 277.887 244.209C278.387 246.201 278.489 248.272 278.188 250.303C277.282 256.303 276.813 262.491 276.813 268.741C276.813 290.928 273.688 313.022 267.5 334.366L231.875 456.96C231.342 458.973 230.411 460.86 229.137 462.508C227.864 464.156 226.273 465.533 224.46 466.558C222.646 467.583 220.646 468.235 218.577 468.475C216.508 468.716 214.412 468.541 212.412 467.959C210.412 467.378 208.548 466.403 206.93 465.09C205.312 463.778 203.973 462.156 202.991 460.319C202.01 458.482 201.405 456.467 201.214 454.393C201.022 452.318 201.247 450.227 201.875 448.241L237.5 325.647C242.859 307.154 245.573 287.995 245.563 268.741C245.563 260.928 246.157 253.241 247.25 245.741C247.549 243.709 248.245 241.756 249.298 239.993C250.352 238.23 251.743 236.692 253.391 235.467C255.04 234.243 256.914 233.355 258.906 232.855C260.898 232.355 262.969 232.252 265 232.553ZM542.563 346.928C546.69 347.278 550.509 349.252 553.181 352.417C555.853 355.581 557.159 359.676 556.813 363.803C554.188 395.053 547.5 425.866 536.813 455.491L513.563 520.116C512.113 523.95 509.215 527.061 505.493 528.779C501.771 530.496 497.523 530.682 493.665 529.296C489.808 527.91 486.649 525.064 484.87 521.371C483.091 517.678 482.835 513.434 484.157 509.553L507.438 444.866C517.148 417.886 523.284 389.751 525.688 361.178C526.038 357.052 528.012 353.233 531.176 350.561C534.34 347.889 538.436 346.582 542.563 346.928Z" fill="url(#paint3_linear_132_248)"/>
<path d="M300.313 92.8073C331.194 74.9783 366.224 65.5926 401.882 65.5938C437.54 65.5949 472.569 74.9828 503.449 92.8139C534.329 110.645 559.97 136.291 577.797 167.173C595.623 198.056 605.005 233.087 605 268.745C605 272.889 603.354 276.863 600.424 279.793C597.494 282.724 593.519 284.37 589.375 284.37C585.231 284.37 581.257 282.724 578.327 279.793C575.397 276.863 573.75 272.889 573.75 268.745C573.761 238.57 565.826 208.923 550.745 182.787C535.664 156.651 513.968 134.945 487.838 119.853C461.708 104.761 432.065 96.8143 401.89 96.8117C371.715 96.8092 342.07 104.751 315.938 119.839C312.367 121.707 308.212 122.123 304.342 121C300.471 119.877 297.184 117.302 295.168 113.813C293.151 110.324 292.56 106.19 293.519 102.276C294.478 98.3618 296.912 94.9694 300.313 92.8073ZM272.5 132.089C274.031 133.455 275.278 135.11 276.169 136.958C277.06 138.806 277.579 140.812 277.695 142.861C277.811 144.91 277.522 146.961 276.846 148.898C276.169 150.836 275.117 152.62 273.75 154.151C245.513 185.634 229.928 226.454 230 268.745C230 272.889 228.354 276.863 225.424 279.793C222.494 282.724 218.519 284.37 214.375 284.37C210.231 284.37 206.257 282.724 203.327 279.793C200.397 276.863 198.75 272.889 198.75 268.745C198.75 216.745 218.313 169.245 250.469 133.339C251.836 131.808 253.49 130.561 255.339 129.67C257.187 128.779 259.193 128.26 261.241 128.144C263.29 128.028 265.342 128.317 267.279 128.993C269.216 129.67 271.001 130.722 272.532 132.089H272.5ZM209.844 300.62C213.829 301.742 217.205 304.399 219.232 308.008C221.26 311.617 221.772 315.883 220.657 319.87L196.313 406.339C195.827 408.387 194.932 410.316 193.682 412.01C192.431 413.704 190.852 415.128 189.037 416.197C187.223 417.265 185.212 417.955 183.124 418.227C181.036 418.498 178.915 418.345 176.887 417.776C174.86 417.207 172.969 416.234 171.327 414.916C169.686 413.598 168.327 411.961 167.334 410.105C166.34 408.249 165.732 406.211 165.546 404.114C165.36 402.017 165.599 399.903 166.25 397.901L190.563 311.432C191.118 309.456 192.058 307.608 193.327 305.995C194.597 304.382 196.172 303.035 197.963 302.031C199.753 301.026 201.724 300.385 203.763 300.143C205.802 299.901 207.868 300.063 209.844 300.62ZM589.532 315.651C591.584 315.692 593.608 316.136 595.488 316.959C597.368 317.782 599.068 318.968 600.49 320.448C601.911 321.928 603.028 323.673 603.775 325.585C604.522 327.496 604.886 329.537 604.844 331.589C603.907 378.432 599.813 426.12 582.125 473.245L579.938 479.089C578.407 482.862 575.464 485.889 571.735 487.525C568.006 489.161 563.785 489.276 559.972 487.846C556.159 486.417 553.055 483.555 551.321 479.87C549.587 476.185 549.36 471.969 550.688 468.12L552.875 462.276C568.688 420.089 572.688 376.651 573.594 330.964C573.635 328.912 574.079 326.888 574.902 325.007C575.725 323.127 576.911 321.428 578.391 320.006C579.871 318.584 581.616 317.467 583.528 316.72C585.439 315.973 587.48 315.61 589.532 315.651Z" fill="url(#paint4_linear_132_248)"/>
</g>
</g>
</g>
<mask id="mask1_132_248" style="mask-type:alpha" maskUnits="userSpaceOnUse" x="97" y="42" width="593" height="232">
<rect x="97" y="42.999" width="593" height="231" fill="white"/>
</mask>
<g mask="url(#mask1_132_248)">
<g clip-path="url(#clip1_132_248)">
<path d="M401.875 253.124C406.019 253.124 409.993 254.77 412.924 257.7C415.854 260.631 417.5 264.605 417.5 268.749V292.999C417.496 330.329 411.677 367.43 400.25 402.968L358.656 532.343C357.313 536.189 354.521 539.358 350.875 541.176C347.229 542.993 343.017 543.315 339.138 542.072C335.258 540.829 332.017 538.12 330.106 534.522C328.195 530.924 327.764 526.722 328.906 522.812L370.469 393.405C380.902 360.958 386.215 327.083 386.219 292.999V268.749C386.219 264.605 387.865 260.631 390.795 257.7C393.726 254.77 397.7 253.124 401.844 253.124H401.875Z" fill="url(#paint5_linear_132_248)"/>
<path d="M339.375 268.749C339.375 260.541 340.992 252.414 344.133 244.831C347.274 237.248 351.877 230.359 357.681 224.555C363.485 218.751 370.375 214.147 377.958 211.007C385.54 207.866 393.668 206.249 401.875 206.249C410.083 206.249 418.21 207.866 425.793 211.007C433.376 214.147 440.266 218.751 446.069 224.555C451.873 230.359 456.477 237.248 459.618 244.831C462.759 252.414 464.375 260.541 464.375 268.749C464.375 272.893 462.729 276.867 459.799 279.798C456.869 282.728 452.894 284.374 448.75 284.374C444.606 284.374 440.632 282.728 437.702 279.798C434.771 276.867 433.125 272.893 433.125 268.749C433.125 260.461 429.833 252.512 423.972 246.652C418.112 240.791 410.163 237.499 401.875 237.499C393.587 237.499 385.639 240.791 379.778 246.652C373.918 252.512 370.625 260.461 370.625 268.749V279.124C370.625 291.905 369.938 304.624 368.563 317.28C368.022 321.315 365.928 324.98 362.726 327.494C359.524 330.008 355.467 331.173 351.419 330.742C347.371 330.31 343.652 328.315 341.052 325.183C338.452 322.05 337.178 318.026 337.5 313.968C338.75 302.405 339.375 290.78 339.375 279.124V268.749ZM449.032 299.999C451.084 300.052 453.105 300.508 454.981 301.342C456.856 302.177 458.549 303.372 459.963 304.861C461.376 306.35 462.482 308.103 463.218 310.019C463.953 311.936 464.304 313.978 464.25 316.03C463.324 351.527 457.142 386.69 445.907 420.374L406.344 539.124C405.03 543.057 402.208 546.306 398.499 548.158C394.789 550.01 390.495 550.313 386.563 548.999C382.63 547.685 379.38 544.863 377.528 541.154C375.676 537.444 375.374 533.15 376.688 529.218L416.282 410.468C426.528 379.718 432.162 347.619 433 315.218C433.053 313.166 433.509 311.144 434.344 309.268C435.178 307.393 436.374 305.7 437.862 304.287C439.351 302.873 441.104 301.767 443.02 301.031C444.937 300.296 446.979 299.945 449.032 299.999ZM344.156 366.093C346.119 366.699 347.943 367.686 349.524 368.997C351.104 370.309 352.411 371.919 353.369 373.736C354.327 375.553 354.917 377.541 355.106 379.586C355.294 381.631 355.078 383.694 354.469 385.655L313.75 516.843C313.173 518.838 312.204 520.698 310.9 522.314C309.595 523.93 307.982 525.27 306.154 526.255C304.325 527.24 302.319 527.851 300.252 528.052C298.185 528.253 296.099 528.04 294.115 527.425C292.131 526.81 290.29 525.806 288.699 524.471C287.108 523.137 285.799 521.498 284.848 519.652C283.898 517.805 283.325 515.787 283.163 513.717C283.001 511.646 283.254 509.564 283.906 507.593L324.625 376.374C325.856 372.423 328.603 369.122 332.265 367.195C335.927 365.267 340.203 364.871 344.156 366.093Z" fill="url(#paint6_linear_132_248)"/>
<path d="M298.719 232.278C307.35 207.984 324.282 187.519 346.529 174.492C368.776 161.464 394.909 156.712 420.319 161.073C445.728 165.433 468.781 178.627 485.412 198.327C502.043 218.026 511.182 242.966 511.219 268.746C511.219 272.89 509.573 276.865 506.643 279.795C503.712 282.725 499.738 284.371 495.594 284.371C491.45 284.371 487.476 282.725 484.546 279.795C481.615 276.865 479.969 272.89 479.969 268.746C479.966 250.318 473.449 232.484 461.57 218.396C449.69 204.308 433.213 194.873 415.05 191.758C396.887 188.643 378.208 192.049 362.313 201.373C346.418 210.698 334.331 225.341 328.188 242.715C326.804 246.623 323.924 249.821 320.182 251.605C316.44 253.39 312.143 253.615 308.235 252.231C304.327 250.847 301.129 247.967 299.345 244.225C297.56 240.483 297.335 236.185 298.719 232.278ZM308.094 284.465C312.217 284.868 316.011 286.892 318.642 290.092C321.273 293.291 322.526 297.405 322.125 301.528C320.016 323.038 315.83 344.293 309.625 364.996L271.438 492.246C270.249 496.216 267.531 499.551 263.883 501.517C260.235 503.484 255.955 503.92 251.985 502.731C248.015 501.541 244.68 498.824 242.714 495.176C240.748 491.527 240.311 487.248 241.5 483.278L279.688 356.028C285.318 337.251 289.117 317.974 291.032 298.465C291.435 294.342 293.459 290.548 296.658 287.917C299.858 285.286 303.971 284.033 308.094 284.434V284.465ZM495.594 304.684C499.738 304.684 503.712 306.33 506.643 309.26C509.573 312.191 511.219 316.165 511.219 320.309C511.219 360.309 504.563 400.059 491.469 437.871L457.407 536.153C455.923 539.894 453.053 542.919 449.394 544.597C445.736 546.275 441.571 546.476 437.767 545.158C433.964 543.841 430.816 541.106 428.979 537.525C427.142 533.944 426.758 529.791 427.907 525.934L461.938 427.653C473.875 393.121 480 356.84 480 320.309C480 316.165 481.647 312.191 484.577 309.26C487.507 306.33 491.481 304.684 495.625 304.684H495.594Z" fill="url(#paint7_linear_132_248)"/>
<path d="M271.938 181.928C289.299 155.901 314.079 135.69 343.066 123.916C372.052 112.142 403.907 109.348 434.5 115.897C436.509 116.324 438.414 117.142 440.107 118.305C441.8 119.468 443.246 120.953 444.365 122.676C445.484 124.398 446.252 126.324 446.627 128.343C447.001 130.362 446.974 132.435 446.547 134.444C446.121 136.453 445.302 138.358 444.139 140.051C442.976 141.743 441.491 143.19 439.769 144.309C438.047 145.427 436.121 146.196 434.102 146.57C432.082 146.945 430.009 146.918 428 146.491C403.521 141.238 378.027 143.464 354.828 152.882C331.63 162.3 311.798 178.473 297.907 199.303C295.57 202.668 292.004 204.981 287.979 205.742C283.953 206.504 279.79 205.654 276.385 203.376C272.98 201.098 270.606 197.574 269.774 193.562C268.942 189.55 269.719 185.373 271.938 181.928ZM481.938 152.085C484.645 148.949 488.486 147.016 492.617 146.711C496.748 146.406 500.832 147.755 503.969 150.46C520.973 165.117 534.612 183.273 543.954 203.687C553.295 224.101 558.118 246.291 558.094 268.741V315.616C558.094 319.76 556.448 323.734 553.518 326.665C550.588 329.595 546.613 331.241 542.469 331.241C538.325 331.241 534.351 329.595 531.421 326.665C528.49 323.734 526.844 319.76 526.844 315.616V268.741C526.866 250.78 523.007 233.026 515.532 216.694C508.056 200.362 497.141 185.838 483.532 174.116C480.4 171.405 478.473 167.561 478.174 163.43C477.876 159.299 479.229 155.218 481.938 152.085ZM265 232.553C267.032 232.852 268.986 233.548 270.749 234.601C272.511 235.655 274.049 237.046 275.274 238.694C276.499 240.343 277.387 242.217 277.887 244.209C278.387 246.201 278.489 248.272 278.188 250.303C277.282 256.303 276.813 262.491 276.813 268.741C276.813 290.928 273.688 313.022 267.5 334.366L231.875 456.96C231.342 458.973 230.411 460.86 229.137 462.508C227.864 464.156 226.273 465.533 224.46 466.558C222.646 467.583 220.646 468.235 218.577 468.475C216.508 468.716 214.412 468.541 212.412 467.959C210.412 467.378 208.548 466.403 206.93 465.09C205.312 463.778 203.973 462.156 202.991 460.319C202.01 458.482 201.405 456.467 201.214 454.393C201.022 452.318 201.247 450.227 201.875 448.241L237.5 325.647C242.859 307.154 245.573 287.995 245.563 268.741C245.563 260.928 246.157 253.241 247.25 245.741C247.549 243.709 248.245 241.756 249.298 239.993C250.352 238.23 251.743 236.692 253.391 235.467C255.04 234.243 256.914 233.355 258.906 232.855C260.898 232.355 262.969 232.252 265 232.553ZM542.563 346.928C546.69 347.278 550.509 349.252 553.181 352.417C555.853 355.581 557.159 359.676 556.813 363.803C554.188 395.053 547.5 425.866 536.813 455.491L513.563 520.116C512.113 523.95 509.215 527.061 505.493 528.779C501.771 530.496 497.523 530.682 493.665 529.296C489.808 527.91 486.649 525.064 484.87 521.371C483.091 517.678 482.835 513.434 484.157 509.553L507.438 444.866C517.148 417.886 523.284 389.751 525.688 361.178C526.038 357.052 528.012 353.233 531.176 350.561C534.34 347.889 538.436 346.582 542.563 346.928Z" fill="url(#paint8_linear_132_248)"/>
<path d="M300.313 92.8073C331.194 74.9783 366.224 65.5926 401.882 65.5938C437.54 65.5949 472.569 74.9828 503.449 92.8139C534.329 110.645 559.97 136.291 577.797 167.173C595.623 198.056 605.005 233.087 605 268.745C605 272.889 603.354 276.863 600.424 279.793C597.494 282.724 593.519 284.37 589.375 284.37C585.231 284.37 581.257 282.724 578.327 279.793C575.397 276.863 573.75 272.889 573.75 268.745C573.761 238.57 565.826 208.923 550.745 182.787C535.664 156.651 513.968 134.945 487.838 119.853C461.708 104.761 432.065 96.8143 401.89 96.8117C371.715 96.8092 342.07 104.751 315.938 119.839C312.367 121.707 308.212 122.123 304.342 121C300.471 119.877 297.184 117.302 295.168 113.813C293.151 110.324 292.56 106.19 293.519 102.276C294.478 98.3618 296.912 94.9694 300.313 92.8073ZM272.5 132.089C274.031 133.455 275.278 135.11 276.169 136.958C277.06 138.806 277.579 140.812 277.695 142.861C277.811 144.91 277.522 146.961 276.846 148.898C276.169 150.836 275.117 152.62 273.75 154.151C245.513 185.634 229.928 226.454 230 268.745C230 272.889 228.354 276.863 225.424 279.793C222.494 282.724 218.519 284.37 214.375 284.37C210.231 284.37 206.257 282.724 203.327 279.793C200.397 276.863 198.75 272.889 198.75 268.745C198.75 216.745 218.313 169.245 250.469 133.339C251.836 131.808 253.49 130.561 255.339 129.67C257.187 128.779 259.193 128.26 261.241 128.144C263.29 128.028 265.342 128.317 267.279 128.993C269.216 129.67 271.001 130.722 272.532 132.089H272.5ZM209.844 300.62C213.829 301.742 217.205 304.399 219.232 308.008C221.26 311.617 221.772 315.883 220.657 319.87L196.313 406.339C195.827 408.387 194.932 410.316 193.682 412.01C192.431 413.704 190.852 415.128 189.037 416.197C187.223 417.265 185.212 417.955 183.124 418.227C181.036 418.498 178.915 418.345 176.887 417.776C174.86 417.207 172.969 416.234 171.327 414.916C169.686 413.598 168.327 411.961 167.334 410.105C166.34 408.249 165.732 406.211 165.546 404.114C165.36 402.017 165.599 399.903 166.25 397.901L190.563 311.432C191.118 309.456 192.058 307.608 193.327 305.995C194.597 304.382 196.172 303.035 197.963 302.031C199.753 301.026 201.724 300.385 203.763 300.143C205.802 299.901 207.868 300.063 209.844 300.62ZM589.532 315.651C591.584 315.692 593.608 316.136 595.488 316.959C597.368 317.782 599.068 318.968 600.49 320.448C601.911 321.928 603.028 323.673 603.775 325.585C604.522 327.496 604.886 329.537 604.844 331.589C603.907 378.432 599.813 426.12 582.125 473.245L579.938 479.089C578.407 482.862 575.464 485.889 571.735 487.525C568.006 489.161 563.785 489.276 559.972 487.846C556.159 486.417 553.055 483.555 551.321 479.87C549.587 476.185 549.36 471.969 550.688 468.12L552.875 462.276C568.688 420.089 572.688 376.651 573.594 330.964C573.635 328.912 574.079 326.888 574.902 325.007C575.725 323.127 576.911 321.428 578.391 320.006C579.871 318.584 581.616 317.467 583.528 316.72C585.439 315.973 587.48 315.61 589.532 315.651Z" fill="url(#paint9_linear_132_248)"/>
</g>
</g>
<mask id="mask2_132_248" style="mask-type:alpha" maskUnits="userSpaceOnUse" x="150" y="49" width="500" height="501">
<g opacity="0.2">
<g clip-path="url(#clip2_132_248)">
<path d="M401.875 253.124C406.019 253.124 409.993 254.77 412.924 257.7C415.854 260.631 417.5 264.605 417.5 268.749V292.999C417.496 330.329 411.677 367.43 400.25 402.968L358.656 532.343C357.313 536.189 354.521 539.358 350.875 541.176C347.229 542.993 343.017 543.315 339.138 542.072C335.258 540.829 332.017 538.12 330.106 534.522C328.195 530.924 327.764 526.722 328.906 522.812L370.469 393.405C380.902 360.958 386.215 327.083 386.219 292.999V268.749C386.219 264.605 387.865 260.631 390.795 257.7C393.726 254.77 397.7 253.124 401.844 253.124H401.875Z" fill="url(#paint10_linear_132_248)"/>
<path d="M339.375 268.749C339.375 260.541 340.992 252.414 344.133 244.831C347.274 237.248 351.877 230.359 357.681 224.555C363.485 218.751 370.375 214.147 377.958 211.007C385.54 207.866 393.668 206.249 401.875 206.249C410.083 206.249 418.21 207.866 425.793 211.007C433.376 214.147 440.266 218.751 446.069 224.555C451.873 230.359 456.477 237.248 459.618 244.831C462.759 252.414 464.375 260.541 464.375 268.749C464.375 272.893 462.729 276.867 459.799 279.798C456.869 282.728 452.894 284.374 448.75 284.374C444.606 284.374 440.632 282.728 437.702 279.798C434.771 276.867 433.125 272.893 433.125 268.749C433.125 260.461 429.833 252.512 423.972 246.652C418.112 240.791 410.163 237.499 401.875 237.499C393.587 237.499 385.639 240.791 379.778 246.652C373.918 252.512 370.625 260.461 370.625 268.749V279.124C370.625 291.905 369.938 304.624 368.563 317.28C368.022 321.315 365.928 324.98 362.726 327.494C359.524 330.008 355.467 331.173 351.419 330.742C347.371 330.31 343.652 328.315 341.052 325.183C338.452 322.05 337.178 318.026 337.5 313.968C338.75 302.405 339.375 290.78 339.375 279.124V268.749ZM449.032 299.999C451.084 300.052 453.105 300.508 454.981 301.342C456.856 302.177 458.549 303.372 459.963 304.861C461.376 306.35 462.482 308.103 463.218 310.019C463.953 311.936 464.304 313.978 464.25 316.03C463.324 351.527 457.142 386.69 445.907 420.374L406.344 539.124C405.03 543.057 402.208 546.306 398.499 548.158C394.789 550.01 390.495 550.313 386.563 548.999C382.63 547.685 379.38 544.863 377.528 541.154C375.676 537.444 375.374 533.15 376.688 529.218L416.282 410.468C426.528 379.718 432.162 347.619 433 315.218C433.053 313.166 433.509 311.144 434.344 309.268C435.178 307.393 436.374 305.7 437.862 304.287C439.351 302.873 441.104 301.767 443.02 301.031C444.937 300.296 446.979 299.945 449.032 299.999ZM344.156 366.093C346.119 366.699 347.943 367.686 349.524 368.997C351.104 370.309 352.411 371.919 353.369 373.736C354.327 375.553 354.917 377.541 355.106 379.586C355.294 381.631 355.078 383.694 354.469 385.655L313.75 516.843C313.173 518.838 312.204 520.698 310.9 522.314C309.595 523.93 307.982 525.27 306.154 526.255C304.325 527.24 302.319 527.851 300.252 528.052C298.185 528.253 296.099 528.04 294.115 527.425C292.131 526.81 290.29 525.806 288.699 524.471C287.108 523.137 285.799 521.498 284.848 519.652C283.898 517.805 283.325 515.787 283.163 513.717C283.001 511.646 283.254 509.564 283.906 507.593L324.625 376.374C325.856 372.423 328.603 369.122 332.265 367.195C335.927 365.267 340.203 364.871 344.156 366.093Z" fill="url(#paint11_linear_132_248)"/>
<path d="M298.719 232.278C307.35 207.984 324.282 187.519 346.529 174.492C368.776 161.464 394.909 156.712 420.319 161.073C445.728 165.433 468.781 178.627 485.412 198.327C502.043 218.026 511.182 242.966 511.219 268.746C511.219 272.89 509.573 276.865 506.643 279.795C503.712 282.725 499.738 284.371 495.594 284.371C491.45 284.371 487.476 282.725 484.546 279.795C481.615 276.865 479.969 272.89 479.969 268.746C479.966 250.318 473.449 232.484 461.57 218.396C449.69 204.308 433.213 194.873 415.05 191.758C396.887 188.643 378.208 192.049 362.313 201.373C346.418 210.698 334.331 225.341 328.188 242.715C326.804 246.623 323.924 249.821 320.182 251.605C316.44 253.39 312.143 253.615 308.235 252.231C304.327 250.847 301.129 247.967 299.345 244.225C297.56 240.483 297.335 236.185 298.719 232.278ZM308.094 284.465C312.217 284.868 316.011 286.892 318.642 290.092C321.273 293.291 322.526 297.405 322.125 301.528C320.016 323.038 315.83 344.293 309.625 364.996L271.438 492.246C270.249 496.216 267.531 499.551 263.883 501.517C260.235 503.484 255.955 503.92 251.985 502.731C248.015 501.541 244.68 498.824 242.714 495.176C240.748 491.527 240.311 487.248 241.5 483.278L279.688 356.028C285.318 337.251 289.117 317.974 291.032 298.465C291.435 294.342 293.459 290.548 296.658 287.917C299.858 285.286 303.971 284.033 308.094 284.434V284.465ZM495.594 304.684C499.738 304.684 503.712 306.33 506.643 309.26C509.573 312.191 511.219 316.165 511.219 320.309C511.219 360.309 504.563 400.059 491.469 437.871L457.407 536.153C455.923 539.894 453.053 542.919 449.394 544.597C445.736 546.275 441.571 546.476 437.767 545.158C433.964 543.841 430.816 541.106 428.979 537.525C427.142 533.944 426.758 529.791 427.907 525.934L461.938 427.653C473.875 393.121 480 356.84 480 320.309C480 316.165 481.647 312.191 484.577 309.26C487.507 306.33 491.481 304.684 495.625 304.684H495.594Z" fill="url(#paint12_linear_132_248)"/>
<path d="M271.938 181.928C289.299 155.901 314.079 135.69 343.066 123.916C372.052 112.142 403.907 109.348 434.5 115.897C436.509 116.324 438.414 117.142 440.107 118.305C441.8 119.468 443.246 120.953 444.365 122.676C445.484 124.398 446.252 126.324 446.627 128.343C447.001 130.362 446.974 132.435 446.547 134.444C446.121 136.453 445.302 138.358 444.139 140.051C442.976 141.743 441.491 143.19 439.769 144.309C438.047 145.427 436.121 146.196 434.102 146.57C432.082 146.945 430.009 146.918 428 146.491C403.521 141.238 378.027 143.464 354.828 152.882C331.63 162.3 311.798 178.473 297.907 199.303C295.57 202.668 292.004 204.981 287.979 205.742C283.953 206.504 279.79 205.654 276.385 203.376C272.98 201.098 270.606 197.574 269.774 193.562C268.942 189.55 269.719 185.373 271.938 181.928ZM481.938 152.085C484.645 148.949 488.486 147.016 492.617 146.711C496.748 146.406 500.832 147.755 503.969 150.46C520.973 165.117 534.612 183.273 543.954 203.687C553.295 224.101 558.118 246.291 558.094 268.741V315.616C558.094 319.76 556.448 323.734 553.518 326.665C550.588 329.595 546.613 331.241 542.469 331.241C538.325 331.241 534.351 329.595 531.421 326.665C528.49 323.734 526.844 319.76 526.844 315.616V268.741C526.866 250.78 523.007 233.026 515.532 216.694C508.056 200.362 497.141 185.838 483.532 174.116C480.4 171.405 478.473 167.561 478.174 163.43C477.876 159.299 479.229 155.218 481.938 152.085ZM265 232.553C267.032 232.852 268.986 233.548 270.749 234.601C272.511 235.655 274.049 237.046 275.274 238.694C276.499 240.343 277.387 242.217 277.887 244.209C278.387 246.201 278.489 248.272 278.188 250.303C277.282 256.303 276.813 262.491 276.813 268.741C276.813 290.928 273.688 313.022 267.5 334.366L231.875 456.96C231.342 458.973 230.411 460.86 229.137 462.508C227.864 464.156 226.273 465.533 224.46 466.558C222.646 467.583 220.646 468.235 218.577 468.475C216.508 468.716 214.412 468.541 212.412 467.959C210.412 467.378 208.548 466.403 206.93 465.09C205.312 463.778 203.973 462.156 202.991 460.319C202.01 458.482 201.405 456.467 201.214 454.393C201.022 452.318 201.247 450.227 201.875 448.241L237.5 325.647C242.859 307.154 245.573 287.995 245.563 268.741C245.563 260.928 246.157 253.241 247.25 245.741C247.549 243.709 248.245 241.756 249.298 239.993C250.352 238.23 251.743 236.692 253.391 235.467C255.04 234.243 256.914 233.355 258.906 232.855C260.898 232.355 262.969 232.252 265 232.553ZM542.563 346.928C546.69 347.278 550.509 349.252 553.181 352.417C555.853 355.581 557.159 359.676 556.813 363.803C554.188 395.053 547.5 425.866 536.813 455.491L513.563 520.116C512.113 523.95 509.215 527.061 505.493 528.779C501.771 530.496 497.523 530.682 493.665 529.296C489.808 527.91 486.649 525.064 484.87 521.371C483.091 517.678 482.835 513.434 484.157 509.553L507.438 444.866C517.148 417.886 523.284 389.751 525.688 361.178C526.038 357.052 528.012 353.233 531.176 350.561C534.34 347.889 538.436 346.582 542.563 346.928Z" fill="url(#paint13_linear_132_248)"/>
<path d="M300.313 92.8073C331.194 74.9783 366.224 65.5926 401.882 65.5938C437.54 65.5949 472.569 74.9828 503.449 92.8139C534.329 110.645 559.97 136.291 577.797 167.173C595.623 198.056 605.005 233.087 605 268.745C605 272.889 603.354 276.863 600.424 279.793C597.494 282.724 593.519 284.37 589.375 284.37C585.231 284.37 581.257 282.724 578.327 279.793C575.397 276.863 573.75 272.889 573.75 268.745C573.761 238.57 565.826 208.923 550.745 182.787C535.664 156.651 513.968 134.945 487.838 119.853C461.708 104.761 432.065 96.8143 401.89 96.8117C371.715 96.8092 342.07 104.751 315.938 119.839C312.367 121.707 308.212 122.123 304.342 121C300.471 119.877 297.184 117.302 295.168 113.813C293.151 110.324 292.56 106.19 293.519 102.276C294.478 98.3618 296.912 94.9694 300.313 92.8073ZM272.5 132.089C274.031 133.455 275.278 135.11 276.169 136.958C277.06 138.806 277.579 140.812 277.695 142.861C277.811 144.91 277.522 146.961 276.846 148.898C276.169 150.836 275.117 152.62 273.75 154.151C245.513 185.634 229.928 226.454 230 268.745C230 272.889 228.354 276.863 225.424 279.793C222.494 282.724 218.519 284.37 214.375 284.37C210.231 284.37 206.257 282.724 203.327 279.793C200.397 276.863 198.75 272.889 198.75 268.745C198.75 216.745 218.313 169.245 250.469 133.339C251.836 131.808 253.49 130.561 255.339 129.67C257.187 128.779 259.193 128.26 261.241 128.144C263.29 128.028 265.342 128.317 267.279 128.993C269.216 129.67 271.001 130.722 272.532 132.089H272.5ZM209.844 300.62C213.829 301.742 217.205 304.399 219.232 308.008C221.26 311.617 221.772 315.883 220.657 319.87L196.313 406.339C195.827 408.387 194.932 410.316 193.682 412.01C192.431 413.704 190.852 415.128 189.037 416.197C187.223 417.265 185.212 417.955 183.124 418.227C181.036 418.498 178.915 418.345 176.887 417.776C174.86 417.207 172.969 416.234 171.327 414.916C169.686 413.598 168.327 411.961 167.334 410.105C166.34 408.249 165.732 406.211 165.546 404.114C165.36 402.017 165.599 399.903 166.25 397.901L190.563 311.432C191.118 309.456 192.058 307.608 193.327 305.995C194.597 304.382 196.172 303.035 197.963 302.031C199.753 301.026 201.724 300.385 203.763 300.143C205.802 299.901 207.868 300.063 209.844 300.62ZM589.532 315.651C591.584 315.692 593.608 316.136 595.488 316.959C597.368 317.782 599.068 318.968 600.49 320.448C601.911 321.928 603.028 323.673 603.775 325.585C604.522 327.496 604.886 329.537 604.844 331.589C603.907 378.432 599.813 426.12 582.125 473.245L579.938 479.089C578.407 482.862 575.464 485.889 571.735 487.525C568.006 489.161 563.785 489.276 559.972 487.846C556.159 486.417 553.055 483.555 551.321 479.87C549.587 476.185 549.36 471.969 550.688 468.12L552.875 462.276C568.688 420.089 572.688 376.651 573.594 330.964C573.635 328.912 574.079 326.888 574.902 325.007C575.725 323.127 576.911 321.428 578.391 320.006C579.871 318.584 581.616 317.467 583.528 316.72C585.439 315.973 587.48 315.61 589.532 315.651Z" fill="url(#paint14_linear_132_248)"/>
</g>
</g>
</mask>
<g mask="url(#mask2_132_248)">
<rect x="50" y="263.999" width="700" height="301" fill="white"/>
</g>
<rect x="50" y="263.999" width="700" height="301" fill="url(#paint15_linear_132_248)"/>
<g filter="url(#filter1_d_132_248)">
<rect x="50" y="263.999" width="700" height="10" fill="#46EBE3"/>
</g>
<defs>
<filter id="filter0_f_132_248" x="100" y="-0.000976562" width="600" height="324" filterUnits="userSpaceOnUse" color-interpolation-filters="sRGB">
<feFlood flood-opacity="0" result="BackgroundImageFix"/>
<feBlend mode="normal" in="SourceGraphic" in2="BackgroundImageFix" result="shape"/>
<feGaussianBlur stdDeviation="25" result="effect1_foregroundBlur_132_248"/>
</filter>
<filter id="filter1_d_132_248" x="0" y="213.999" width="800" height="110" filterUnits="userSpaceOnUse" color-interpolation-filters="sRGB">
<feFlood flood-opacity="0" result="BackgroundImageFix"/>
<feColorMatrix in="SourceAlpha" type="matrix" values="0 0 0 0 0 0 0 0 0 0 0 0 0 0 0 0 0 0 127 0" result="hardAlpha"/>
<feOffset/>
<feGaussianBlur stdDeviation="25"/>
<feComposite in2="hardAlpha" operator="out"/>
<feColorMatrix type="matrix" values="0 0 0 0 0.27451 0 0 0 0 0.921569 0 0 0 0 0.890196 0 0 0 0.75 0"/>
<feBlend mode="normal" in2="BackgroundImageFix" result="effect1_dropShadow_132_248"/>
<feBlend mode="normal" in="SourceGraphic" in2="effect1_dropShadow_132_248" result="shape"/>
</filter>
<linearGradient id="paint0_linear_132_248" x1="328.28" y1="542.817" x2="491.261" y2="492.621" gradientUnits="userSpaceOnUse">
<stop stop-color="#3796E5"/>
<stop offset="1" stop-color="#46ECE3"/>
</linearGradient>
<linearGradient id="paint1_linear_132_248" x1="283.116" y1="549.804" x2="566.697" y2="400.187" gradientUnits="userSpaceOnUse">
<stop stop-color="#3796E5"/>
<stop offset="1" stop-color="#46ECE3"/>
</linearGradient>
<linearGradient id="paint2_linear_132_248" x1="240.843" y1="546.019" x2="603.931" y2="292.035" gradientUnits="userSpaceOnUse">
<stop stop-color="#3796E5"/>
<stop offset="1" stop-color="#46ECE3"/>
</linearGradient>
<linearGradient id="paint3_linear_132_248" x1="201.147" y1="530.216" x2="613.805" y2="177.643" gradientUnits="userSpaceOnUse">
<stop stop-color="#3796E5"/>
<stop offset="1" stop-color="#46ECE3"/>
</linearGradient>
<linearGradient id="paint4_linear_132_248" x1="165.485" y1="488.841" x2="588.431" y2="49.6382" gradientUnits="userSpaceOnUse">
<stop stop-color="#3796E5"/>
<stop offset="1" stop-color="#46ECE3"/>
</linearGradient>
<linearGradient id="paint5_linear_132_248" x1="328.28" y1="542.817" x2="491.261" y2="492.621" gradientUnits="userSpaceOnUse">
<stop stop-color="#3796E5"/>
<stop offset="1" stop-color="#46ECE3"/>
</linearGradient>
<linearGradient id="paint6_linear_132_248" x1="283.116" y1="549.804" x2="566.697" y2="400.187" gradientUnits="userSpaceOnUse">
<stop stop-color="#3796E5"/>
<stop offset="1" stop-color="#46ECE3"/>
</linearGradient>
<linearGradient id="paint7_linear_132_248" x1="240.843" y1="546.019" x2="603.931" y2="292.035" gradientUnits="userSpaceOnUse">
<stop stop-color="#3796E5"/>
<stop offset="1" stop-color="#46ECE3"/>
</linearGradient>
<linearGradient id="paint8_linear_132_248" x1="201.147" y1="530.216" x2="613.805" y2="177.643" gradientUnits="userSpaceOnUse">
<stop stop-color="#3796E5"/>
<stop offset="1" stop-color="#46ECE3"/>
</linearGradient>
<linearGradient id="paint9_linear_132_248" x1="165.485" y1="488.841" x2="588.431" y2="49.6382" gradientUnits="userSpaceOnUse">
<stop stop-color="#3796E5"/>
<stop offset="1" stop-color="#46ECE3"/>
</linearGradient>
<linearGradient id="paint10_linear_132_248" x1="328.28" y1="542.817" x2="491.261" y2="492.621" gradientUnits="userSpaceOnUse">
<stop stop-color="#3796E5"/>
<stop offset="1" stop-color="#46ECE3"/>
</linearGradient>
<linearGradient id="paint11_linear_132_248" x1="283.116" y1="549.804" x2="566.697" y2="400.187" gradientUnits="userSpaceOnUse">
<stop stop-color="#3796E5"/>
<stop offset="1" stop-color="#46ECE3"/>
</linearGradient>
<linearGradient id="paint12_linear_132_248" x1="240.843" y1="546.019" x2="603.931" y2="292.035" gradientUnits="userSpaceOnUse">
<stop stop-color="#3796E5"/>
<stop offset="1" stop-color="#46ECE3"/>
</linearGradient>
<linearGradient id="paint13_linear_132_248" x1="201.147" y1="530.216" x2="613.805" y2="177.643" gradientUnits="userSpaceOnUse">
<stop stop-color="#3796E5"/>
<stop offset="1" stop-color="#46ECE3"/>
</linearGradient>
<linearGradient id="paint14_linear_132_248" x1="165.485" y1="488.841" x2="588.431" y2="49.6382" gradientUnits="userSpaceOnUse">
<stop stop-color="#3796E5"/>
<stop offset="1" stop-color="#46ECE3"/>
</linearGradient>
<linearGradient id="paint15_linear_132_248" x1="400" y1="263.999" x2="400" y2="564.999" gradientUnits="userSpaceOnUse">
<stop stop-color="#46EBE3" stop-opacity="0.4"/>
<stop offset="0.625" stop-color="#46EBE3" stop-opacity="0"/>
</linearGradient>
<clipPath id="clip0_132_248">
<rect width="500" height="500" fill="white" transform="translate(150 49.999)"/>
</clipPath>
<clipPath id="clip1_132_248">
<rect width="500" height="500" fill="white" transform="translate(150 49.999)"/>
</clipPath>
<clipPath id="clip2_132_248">
<rect width="500" height="500" fill="white" transform="translate(150 49.999)"/>
</clipPath>
</defs>
</svg>
