<svg width="285" height="333" viewBox="0 0 285 333" fill="none" xmlns="http://www.w3.org/2000/svg">
<g filter="url(#filter0_f_1_8)">
<path d="M29.1939 60.5545L77.4561 200.433C77.6357 200.953 78.2024 201.231 78.7237 201.053L115.574 188.509C116.095 188.332 116.375 187.766 116.199 187.244L80.8533 82.0098C80.598 81.2496 81.2963 80.5132 82.0689 80.7278L197.388 112.761C198.101 112.959 198.359 113.835 197.868 114.388L74.6347 253.128C74.5356 253.239 74.4627 253.372 74.4214 253.515L61.1367 299.621C60.8908 300.474 61.7967 301.201 62.5765 300.776L114.717 272.335C114.817 272.281 114.832 272.293 114.908 272.208C117.356 269.474 230.772 142.782 248.382 120.607C266.184 98.1902 248.657 82.696 237.668 77.751C188.836 62.4737 59.817 29.5875 58.02 29.1296C57.9642 29.1154 57.9698 29.1224 57.9124 29.1181C32.3644 27.204 28.0866 49.0435 29.1444 60.3282C29.1518 60.4062 29.1683 60.4803 29.1939 60.5545Z" fill="url(#paint0_linear_1_8)"/>
</g>
<path d="M29.1939 60.5545L77.4561 200.433C77.6357 200.953 78.2024 201.231 78.7237 201.053L115.574 188.509C116.095 188.332 116.375 187.766 116.199 187.244L80.8533 82.0098C80.598 81.2496 81.2963 80.5132 82.0689 80.7278L197.388 112.761C198.101 112.959 198.359 113.835 197.868 114.388L74.6347 253.128C74.5356 253.239 74.4627 253.372 74.4214 253.515L61.1367 299.621C60.8908 300.474 61.7967 301.201 62.5765 300.776L114.717 272.335C114.817 272.281 114.832 272.293 114.908 272.208C117.356 269.474 230.772 142.782 248.382 120.607C266.184 98.1902 248.657 82.696 237.668 77.751C188.836 62.4737 59.817 29.5875 58.02 29.1296C57.9642 29.1154 57.9698 29.1224 57.9124 29.1181C32.3644 27.204 28.0866 49.0435 29.1444 60.3282C29.1518 60.4062 29.1683 60.4803 29.1939 60.5545Z" fill="url(#paint1_linear_1_8)"/>
<g style="mix-blend-mode:overlay">
<path d="M240.731 224.067C242.97 221.623 244.147 218.389 244.003 215.077C243.858 211.765 242.404 208.646 239.96 206.406L232.587 199.65C230.143 197.41 226.909 196.233 223.597 196.378C220.285 196.523 217.166 197.977 214.926 200.421L180.724 237.746C180.069 238.461 179.256 239.014 178.349 239.361C177.443 239.708 176.469 239.838 175.503 239.743L159.186 234.117C158.221 234.021 157.246 234.152 156.34 234.499C155.434 234.846 154.621 235.399 153.965 236.114C153.31 236.829 152.83 237.688 152.563 238.621C152.297 239.554 152.251 240.536 152.43 241.489L159.458 257.254C159.637 258.207 159.591 259.189 159.325 260.122C159.058 261.055 158.578 261.914 157.923 262.629L123.721 299.954C121.482 302.398 120.304 305.632 120.449 308.944C120.594 312.256 122.048 315.375 124.492 317.614L131.865 324.37C134.309 326.61 137.543 327.787 140.855 327.642C144.167 327.498 147.286 326.043 149.526 323.599L240.731 224.067Z" fill="white"/>
</g>
<path d="M149.889 292.004L157.193 298.58L155.591 300.359L148.287 293.783L149.889 292.004ZM157.31 286.649C157.922 285.969 158.631 285.628 159.437 285.625C160.243 285.61 161.03 285.948 161.8 286.642L165.192 289.696L163.599 291.464L160.447 288.626C160.059 288.276 159.666 288.105 159.27 288.112C158.874 288.12 158.523 288.294 158.217 288.634C157.911 288.973 157.775 289.341 157.809 289.736C157.843 290.13 158.054 290.502 158.442 290.852L161.595 293.691L159.993 295.47L154.187 290.243L155.789 288.463L156.559 289.157C156.465 288.745 156.482 288.321 156.611 287.885C156.734 287.442 156.967 287.03 157.31 286.649ZM170.154 284.352C169.698 284.858 169.206 285.231 168.676 285.47C168.147 285.709 167.63 285.809 167.126 285.769C166.614 285.724 166.159 285.546 165.76 285.236L167.343 283.478C167.563 283.638 167.81 283.691 168.085 283.637C168.359 283.583 168.606 283.435 168.825 283.192C169.024 282.97 169.136 282.763 169.159 282.57C169.181 282.364 169.123 282.199 168.984 282.074C168.818 281.924 168.618 281.901 168.386 282.006C168.146 282.104 167.803 282.304 167.356 282.605C166.885 282.934 166.472 283.19 166.118 283.374C165.757 283.551 165.372 283.638 164.962 283.633C164.545 283.621 164.139 283.438 163.743 283.082C163.41 282.782 163.19 282.42 163.082 281.996C162.973 281.559 162.998 281.092 163.157 280.595C163.322 280.09 163.626 279.592 164.07 279.099C164.726 278.371 165.421 277.961 166.157 277.87C166.898 277.772 167.595 277.96 168.248 278.434L166.768 280.078C166.542 279.925 166.301 279.871 166.046 279.918C165.797 279.957 165.563 280.098 165.344 280.341C165.157 280.549 165.055 280.746 165.038 280.932C165.015 281.112 165.072 281.264 165.211 281.389C165.377 281.539 165.58 281.565 165.82 281.466C166.065 281.361 166.398 281.158 166.819 280.859C167.317 280.529 167.743 280.278 168.098 280.108C168.445 279.931 168.831 279.851 169.255 279.869C169.678 279.873 170.094 280.053 170.503 280.408C170.843 280.714 171.06 281.086 171.156 281.524C171.251 281.948 171.212 282.41 171.04 282.908C170.874 283.399 170.579 283.88 170.154 284.352ZM176.212 274.422L177.721 275.781L176.906 276.686C176.325 277.331 175.716 277.693 175.079 277.773C174.436 277.846 173.756 277.561 173.042 276.918L170.732 274.838L170.095 275.546L168.618 274.216L169.255 273.508L167.84 272.234L169.442 270.455L170.857 271.729L171.906 270.564L173.383 271.894L172.334 273.059L174.665 275.158C174.838 275.314 175.001 275.385 175.152 275.37C175.303 275.356 175.466 275.251 175.641 275.057L176.212 274.422ZM177.021 270.7C176.424 270.163 176.001 269.58 175.75 268.952C175.505 268.317 175.436 267.697 175.543 267.09C175.65 266.483 175.919 265.94 176.35 265.461C176.718 265.052 177.123 264.77 177.564 264.614C178.012 264.452 178.446 264.41 178.866 264.487L178.044 263.747L179.646 261.968L185.452 267.195L183.85 268.974L183.028 268.234C183.142 268.651 183.142 269.09 183.028 269.552C182.919 270.007 182.681 270.439 182.312 270.849C181.888 271.32 181.379 271.641 180.787 271.811C180.187 271.975 179.559 271.968 178.902 271.791C178.245 271.601 177.617 271.237 177.021 270.7ZM180.947 266.36C180.503 265.961 180.041 265.77 179.559 265.789C179.084 265.8 178.687 265.983 178.368 266.337C178.05 266.691 177.907 267.108 177.938 267.589C177.97 268.056 178.207 268.49 178.651 268.889C179.095 269.289 179.558 269.486 180.04 269.481C180.521 269.462 180.921 269.276 181.24 268.922C181.558 268.569 181.699 268.155 181.661 267.681C181.629 267.2 181.391 266.76 180.947 266.36ZM185.029 261.827C184.425 261.284 184.007 260.688 183.775 260.039C183.549 259.383 183.512 258.728 183.662 258.072C183.819 257.41 184.154 256.794 184.666 256.225C185.322 255.497 186.059 255.062 186.877 254.92C187.702 254.771 188.53 254.932 189.361 255.404L187.656 257.298C187.069 257.058 186.569 257.167 186.157 257.624C185.863 257.95 185.757 258.326 185.839 258.751C185.914 259.17 186.187 259.592 186.659 260.017C187.13 260.441 187.582 260.672 188.013 260.709C188.438 260.74 188.797 260.592 189.091 260.266C189.503 259.808 189.559 259.3 189.259 258.741L190.963 256.847C191.506 257.612 191.749 258.415 191.694 259.257C191.639 260.099 191.287 260.881 190.638 261.603C190.126 262.171 189.548 262.568 188.906 262.794C188.27 263.012 187.614 263.043 186.938 262.887C186.269 262.724 185.632 262.37 185.029 261.827ZM198.024 253.399C197.512 253.968 196.928 254.372 196.273 254.611C195.625 254.843 194.956 254.888 194.268 254.746C193.586 254.597 192.944 254.25 192.34 253.707C191.744 253.17 191.339 252.567 191.125 251.897C190.905 251.221 190.879 250.545 191.048 249.869C191.218 249.193 191.559 248.57 192.071 248.001C192.583 247.433 193.166 247.029 193.821 246.789C194.476 246.55 195.151 246.505 195.846 246.654C196.535 246.796 197.177 247.136 197.773 247.673C198.37 248.21 198.775 248.82 198.989 249.502C199.203 250.172 199.222 250.848 199.046 251.532C198.877 252.208 198.536 252.831 198.024 253.399ZM196.484 252.013C196.79 251.673 196.925 251.273 196.887 250.812C196.856 250.344 196.608 249.901 196.143 249.483C195.679 249.065 195.215 248.861 194.753 248.872C194.297 248.876 193.917 249.048 193.611 249.388C193.298 249.735 193.164 250.135 193.208 250.589C193.244 251.036 193.498 251.472 193.97 251.897C194.435 252.315 194.892 252.526 195.341 252.529C195.797 252.525 196.178 252.353 196.484 252.013ZM197.562 240.856C197.281 241.169 196.96 241.344 196.598 241.383C196.236 241.408 195.92 241.299 195.649 241.056C195.372 240.806 195.231 240.503 195.225 240.146C195.219 239.777 195.356 239.436 195.637 239.123C195.912 238.818 196.231 238.653 196.593 238.627C196.954 238.589 197.274 238.694 197.551 238.944C197.822 239.187 197.96 239.494 197.966 239.864C197.972 240.22 197.837 240.551 197.562 240.856ZM198.962 240.515L204.767 245.743L203.165 247.522L197.36 242.295L198.962 240.515ZM204.885 233.812C205.497 233.132 206.206 232.791 207.012 232.788C207.817 232.773 208.605 233.111 209.375 233.805L212.767 236.859L211.174 238.627L208.022 235.789C207.633 235.439 207.241 235.268 206.845 235.275C206.449 235.283 206.098 235.457 205.792 235.797C205.486 236.136 205.35 236.504 205.383 236.898C205.417 237.293 205.629 237.665 206.017 238.015L209.169 240.854L207.567 242.633L201.762 237.405L203.364 235.626L204.134 236.32C204.04 235.908 204.057 235.484 204.186 235.048C204.308 234.605 204.541 234.193 204.885 233.812Z" fill="#281818"/>
<defs>
<filter id="filter0_f_1_8" x="0" y="3.05176e-05" width="285" height="329.901" filterUnits="userSpaceOnUse" color-interpolation-filters="sRGB">
<feFlood flood-opacity="0" result="BackgroundImageFix"/>
<feBlend mode="normal" in="SourceGraphic" in2="BackgroundImageFix" result="shape"/>
<feGaussianBlur stdDeviation="14.5" result="effect1_foregroundBlur_1_8"/>
</filter>
<linearGradient id="paint0_linear_1_8" x1="38.8899" y1="33.1208" x2="148.503" y2="231.743" gradientUnits="userSpaceOnUse">
<stop stop-color="#11AEF9"/>
<stop offset="1" stop-color="#CF3AA1"/>
</linearGradient>
<linearGradient id="paint1_linear_1_8" x1="38.8899" y1="33.1208" x2="148.503" y2="231.743" gradientUnits="userSpaceOnUse">
<stop stop-color="#11AEF9"/>
<stop offset="1" stop-color="#CF3AA1"/>
</linearGradient>
</defs>
</svg>
