<svg width="328" height="160" viewBox="0 0 328 160" fill="none" xmlns="http://www.w3.org/2000/svg">
<mask id="mask0_339_250" style="mask-type:alpha" maskUnits="userSpaceOnUse" x="-3" y="46" width="93" height="83">
<path d="M48.8269 55.4424H38.0788C20.5251 55.4424 6.29504 69.7554 6.29504 87.4115C6.29504 105.068 20.5251 119.381 38.0788 119.381H48.8269C66.3806 119.381 80.6107 105.068 80.6107 87.4115C80.6107 69.7554 66.3806 55.4424 48.8269 55.4424Z" stroke="black" stroke-width="17.9775"/>
</mask>
<g mask="url(#mask0_339_250)">
<path d="M58.6541 57.4512H27.6381C12.374 57.4512 0 69.8973 0 85.2504V89.5747C0 104.928 12.374 117.374 27.6381 117.374H58.6541C73.9182 117.374 86.2921 104.928 86.2921 89.5747V85.2504C86.2921 69.8973 73.9182 57.4512 58.6541 57.4512Z" fill="url(#paint0_linear_339_250)"/>
</g>
<path d="M58.4996 47.2722C55.64 47.4319 53.5349 47.7516 52.1843 48.231C50.9136 48.7104 50.0396 49.6293 49.563 50.9874C49.0864 52.3459 48.8481 54.543 48.8481 57.5792V117.025C48.8481 120.061 49.0864 122.258 49.563 123.617C50.0396 124.975 50.9136 125.894 52.1843 126.373C53.5349 126.853 55.64 127.172 58.4996 127.332V129.729C54.8456 129.489 49.8013 129.37 43.3669 129.37C36.5354 129.37 31.4515 129.489 28.1151 129.729V127.332C30.9749 127.172 33.0401 126.853 34.3111 126.373C35.6617 125.894 36.5753 124.975 37.0519 123.617C37.5285 122.258 37.7668 120.061 37.7668 117.025V57.5792C37.7668 54.543 37.5285 52.3459 37.0519 50.9874C36.5753 49.6293 35.6617 48.7104 34.3111 48.231C33.0401 47.7516 30.9749 47.4319 28.1151 47.2722V44.875C31.4515 45.1147 36.5354 45.2345 43.3669 45.2345C49.7221 45.2345 54.766 45.1147 58.4996 44.875V47.2722Z" fill="url(#paint1_linear_339_250)"/>
<path d="M116.029 105.741H124.877V91.0298H139.428V83.826H124.877V76.3183H141.019V69.1324H116.029V105.741ZM145.978 105.741H154.719V78.2846H145.978V105.741ZM150.357 75.0849C152.842 75.0849 154.844 73.208 154.844 70.9021C154.844 68.5962 152.842 66.7371 150.357 66.7371C147.89 66.7371 145.87 68.5962 145.87 70.9021C145.87 73.208 147.89 75.0849 150.357 75.0849ZM160.786 105.741H169.438V101.29H169.706C170.814 103.829 173.281 106.134 177.428 106.134C183.505 106.134 188.403 101.38 188.403 92.0308C188.403 82.3423 183.219 77.9271 177.481 77.9271C173.138 77.9271 170.76 80.4654 169.706 82.9858H169.527V69.1324H160.786V105.741ZM169.348 92.0129C169.348 87.5262 171.207 84.7555 174.407 84.7555C177.642 84.7555 179.43 87.5977 179.43 92.0129C179.43 96.446 177.642 99.3239 174.407 99.3239C171.207 99.3239 169.348 96.4639 169.348 92.0129ZM217.458 86.6682C216.993 81.2341 212.542 77.9271 205.106 77.9271C197.67 77.9271 192.933 81.1626 192.969 86.6682C192.933 90.8868 195.632 93.6038 201.12 94.6227L205.911 95.5344C208.181 95.9813 209.218 96.6963 209.253 97.9118C209.218 99.2882 207.68 100.2 205.446 100.2C202.961 100.2 201.281 99.1273 200.906 97.1253L192.272 97.3398C192.897 102.774 197.563 106.26 205.41 106.26C212.757 106.26 218.102 102.595 218.137 96.9465C218.102 92.9424 215.456 90.565 209.986 89.5104L204.695 88.5093C202.371 88.0446 201.621 87.2223 201.638 86.1677C201.621 84.7734 203.247 83.9154 205.267 83.9154C207.573 83.9154 209.182 85.1488 209.432 86.8827L217.458 86.6682ZM228.075 105.741H237.441L241.731 89.7427H242.035L246.325 105.741H255.674L262.842 78.2846H254.065L250.472 95.7489H250.24L246.164 78.2846H237.602L233.634 95.874H233.401L229.701 78.2846H220.924L228.075 105.741ZM274.594 106.206C278.419 106.206 281.064 104.722 282.566 101.916H282.781V105.741H291.003V87.0793C291.003 81.2698 285.837 77.9271 278.848 77.9271C271.465 77.9271 267.283 81.6452 266.585 86.6503L274.647 86.9363C275.023 85.1845 276.471 84.112 278.776 84.112C280.921 84.112 282.28 85.1488 282.28 86.9899V87.0793C282.28 88.7596 280.457 89.1171 275.773 89.5282C270.214 89.993 265.567 92.0487 265.567 98.1263C265.567 103.56 269.338 106.206 274.594 106.206ZM277.293 100.486C275.273 100.486 273.843 99.5206 273.843 97.6973C273.843 95.9276 275.237 94.8551 277.722 94.4797C279.348 94.2473 281.35 93.8898 282.334 93.3714V95.9813C282.334 98.6626 280.081 100.486 277.293 100.486ZM296.851 116.037H305.592V101.29H305.771C306.879 103.829 309.346 106.134 313.493 106.134C319.571 106.134 324.469 101.38 324.469 92.0308C324.469 82.3423 319.285 77.9271 313.547 77.9271C309.203 77.9271 306.826 80.4654 305.771 82.9858H305.503V78.2846H296.851V116.037ZM305.414 92.0129C305.414 87.5262 307.273 84.7555 310.472 84.7555C313.708 84.7555 315.495 87.5977 315.495 92.0129C315.495 96.446 313.708 99.3239 310.472 99.3239C307.273 99.3239 305.414 96.4639 305.414 92.0129Z" fill="url(#paint2_linear_339_250)"/>
<defs>
<linearGradient id="paint0_linear_339_250" x1="0" y1="117.374" x2="56.1476" y2="36.5183" gradientUnits="userSpaceOnUse">
<stop stop-color="#3796E5"/>
<stop offset="1" stop-color="#46ECE3"/>
</linearGradient>
<linearGradient id="paint1_linear_339_250" x1="28.1151" y1="129.729" x2="81.9778" y2="110.442" gradientUnits="userSpaceOnUse">
<stop stop-color="#3796E5"/>
<stop offset="1" stop-color="#46ECE3"/>
</linearGradient>
<linearGradient id="paint2_linear_339_250" x1="113.258" y1="127.64" x2="166.788" y2="-13.9155" gradientUnits="userSpaceOnUse">
<stop stop-color="#3796E5"/>
<stop offset="1" stop-color="#46ECE3"/>
</linearGradient>
</defs>
</svg>
