<svg width="708" height="708" viewBox="0 0 708 708" fill="none" xmlns="http://www.w3.org/2000/svg">
<g opacity="0.65" filter="url(#filter0_f_222_321)">
<path d="M354 114C385.517 114 416.726 120.208 445.844 132.269C474.962 144.33 501.42 162.008 523.706 184.294C545.992 206.58 563.67 233.038 575.731 262.156C587.792 291.274 594 322.483 594 354" stroke="#EB3B5A" stroke-width="20"/>
<path d="M118.409 308.207C128.08 258.455 153.253 213.042 190.32 178.476" stroke="#45AAF2" stroke-width="20"/>
<path d="M136.486 455.43C115.067 409.495 108.739 357.959 118.41 308.207" stroke="#A55EEA" stroke-width="20"/>
<path d="M212.255 547.669C179.633 523.794 153.571 492.065 136.486 455.427" stroke="#D1D8E0" stroke-width="20"/>
<path d="M279.04 581.99C255.115 574.124 232.578 562.541 212.255 547.667" stroke="#FA8231" stroke-width="20"/>
<path d="M353.999 593.995C328.538 593.995 303.239 589.943 279.052 581.992" stroke="#F7B731" stroke-width="20"/>
<path d="M189.708 179.049C234.207 137.262 292.956 114.002 354 114.002" stroke="#20BF6B" stroke-width="20"/>
<path d="M604 354C604 386.83 597.534 419.339 584.97 449.671C572.406 480.002 553.991 507.562 530.777 530.777C507.562 553.991 480.002 572.406 449.671 584.97C419.339 597.534 386.83 604 354 604" stroke="#46EBE3" stroke-width="40"/>
</g>
<path d="M354 114C385.517 114 416.726 120.208 445.844 132.269C474.962 144.33 501.42 162.008 523.706 184.294C545.992 206.58 563.67 233.038 575.731 262.156C587.792 291.274 594 322.483 594 354" stroke="#EB3B5A" stroke-width="20"/>
<path d="M118.409 308.207C128.08 258.455 153.253 213.042 190.32 178.476" stroke="#45AAF2" stroke-width="20"/>
<path d="M136.486 455.43C115.067 409.495 108.739 357.959 118.41 308.207" stroke="#A55EEA" stroke-width="20"/>
<path d="M212.255 547.669C179.633 523.794 153.571 492.065 136.486 455.427" stroke="#D1D8E0" stroke-width="20"/>
<path d="M279.04 581.99C255.115 574.124 232.578 562.541 212.255 547.667" stroke="#FA8231" stroke-width="20"/>
<path d="M353.999 593.995C328.538 593.995 303.239 589.943 279.052 581.992" stroke="#F7B731" stroke-width="20"/>
<path d="M189.708 179.049C234.207 137.262 292.956 114.002 354 114.002" stroke="#20BF6B" stroke-width="20"/>
<path d="M604 354C604 386.83 597.534 419.339 584.97 449.671C572.406 480.002 553.991 507.562 530.777 530.777C507.562 553.991 480.002 572.406 449.671 584.97C419.339 597.534 386.83 604 354 604" stroke="#46EBE3" stroke-width="40"/>
<g opacity="0.55" filter="url(#filter1_f_222_321)">
<path d="M312.31 342.89C315.19 340.49 317.485 338.495 319.195 336.905C320.905 335.285 322.33 333.605 323.47 331.865C324.61 330.125 325.18 328.415 325.18 326.735C325.18 325.205 324.82 324.005 324.1 323.135C323.38 322.265 322.27 321.83 320.77 321.83C319.27 321.83 318.115 322.34 317.305 323.36C316.495 324.35 316.075 325.715 316.045 327.455H309.925C310.045 323.855 311.11 321.125 313.12 319.265C315.16 317.405 317.74 316.475 320.86 316.475C324.28 316.475 326.905 317.39 328.735 319.22C330.565 321.02 331.48 323.405 331.48 326.375C331.48 328.715 330.85 330.95 329.59 333.08C328.33 335.21 326.89 337.07 325.27 338.66C323.65 340.22 321.535 342.11 318.925 344.33H332.2V349.55H309.97V344.87L312.31 342.89ZM358.22 322.64H343.64V330.335C344.27 329.555 345.17 328.925 346.34 328.445C347.51 327.935 348.755 327.68 350.075 327.68C352.475 327.68 354.44 328.205 355.97 329.255C357.5 330.305 358.61 331.655 359.3 333.305C359.99 334.925 360.335 336.665 360.335 338.525C360.335 341.975 359.345 344.75 357.365 346.85C355.415 348.95 352.625 350 348.995 350C345.575 350 342.845 349.145 340.805 347.435C338.765 345.725 337.61 343.49 337.34 340.73H343.46C343.73 341.93 344.33 342.89 345.26 343.61C346.22 344.33 347.435 344.69 348.905 344.69C350.675 344.69 352.01 344.135 352.91 343.025C353.81 341.915 354.26 340.445 354.26 338.615C354.26 336.755 353.795 335.345 352.865 334.385C351.965 333.395 350.63 332.9 348.86 332.9C347.6 332.9 346.55 333.215 345.71 333.845C344.87 334.475 344.27 335.315 343.91 336.365H337.88V317.105H358.22V322.64ZM364.41 325.25C364.41 322.97 365.07 321.185 366.39 319.895C367.74 318.605 369.465 317.96 371.565 317.96C373.665 317.96 375.375 318.605 376.695 319.895C378.045 321.185 378.72 322.97 378.72 325.25C378.72 327.56 378.045 329.36 376.695 330.65C375.375 331.94 373.665 332.585 371.565 332.585C369.465 332.585 367.74 331.94 366.39 330.65C365.07 329.36 364.41 327.56 364.41 325.25ZM393.3 318.5L375.615 350H369.495L387.135 318.5H393.3ZM371.52 321.74C369.87 321.74 369.045 322.91 369.045 325.25C369.045 327.62 369.87 328.805 371.52 328.805C372.33 328.805 372.96 328.52 373.41 327.95C373.86 327.35 374.085 326.45 374.085 325.25C374.085 322.91 373.23 321.74 371.52 321.74ZM384.165 343.205C384.165 340.895 384.825 339.11 386.145 337.85C387.495 336.56 389.22 335.915 391.32 335.915C393.42 335.915 395.115 336.56 396.405 337.85C397.725 339.11 398.385 340.895 398.385 343.205C398.385 345.515 397.725 347.315 396.405 348.605C395.115 349.895 393.42 350.54 391.32 350.54C389.19 350.54 387.465 349.895 386.145 348.605C384.825 347.315 384.165 345.515 384.165 343.205ZM391.275 339.695C389.565 339.695 388.71 340.865 388.71 343.205C388.71 345.575 389.565 346.76 391.275 346.76C392.955 346.76 393.795 345.575 393.795 343.205C393.795 340.865 392.955 339.695 391.275 339.695ZM315.739 380.21C315.739 381.95 315.139 383.4 313.939 384.56C312.759 385.7 310.949 386.27 308.509 386.27H304.489V395H301.759V374.09H308.509C310.869 374.09 312.659 374.66 313.879 375.8C315.119 376.94 315.739 378.41 315.739 380.21ZM308.509 384.02C310.029 384.02 311.149 383.69 311.869 383.03C312.589 382.37 312.949 381.43 312.949 380.21C312.949 377.63 311.469 376.34 308.509 376.34H304.489V384.02H308.509ZM321.862 381.23C322.342 380.29 323.022 379.56 323.902 379.04C324.802 378.52 325.892 378.26 327.172 378.26V381.08H326.452C323.392 381.08 321.862 382.74 321.862 386.06V395H319.132V378.56H321.862V381.23ZM345.324 386.15C345.324 386.67 345.294 387.22 345.234 387.8H332.094C332.194 389.42 332.744 390.69 333.744 391.61C334.764 392.51 335.994 392.96 337.434 392.96C338.614 392.96 339.594 392.69 340.374 392.15C341.174 391.59 341.734 390.85 342.054 389.93H344.994C344.554 391.51 343.674 392.8 342.354 393.8C341.034 394.78 339.394 395.27 337.434 395.27C335.874 395.27 334.474 394.92 333.234 394.22C332.014 393.52 331.054 392.53 330.354 391.25C329.654 389.95 329.304 388.45 329.304 386.75C329.304 385.05 329.644 383.56 330.324 382.28C331.004 381 331.954 380.02 333.174 379.34C334.414 378.64 335.834 378.29 337.434 378.29C338.994 378.29 340.374 378.63 341.574 379.31C342.774 379.99 343.694 380.93 344.334 382.13C344.994 383.31 345.324 384.65 345.324 386.15ZM342.504 385.58C342.504 384.54 342.274 383.65 341.814 382.91C341.354 382.15 340.724 381.58 339.924 381.2C339.144 380.8 338.274 380.6 337.314 380.6C335.934 380.6 334.754 381.04 333.774 381.92C332.814 382.8 332.264 384.02 332.124 385.58H342.504ZM354.747 395.27C353.487 395.27 352.357 395.06 351.357 394.64C350.357 394.2 349.567 393.6 348.987 392.84C348.407 392.06 348.087 391.17 348.027 390.17H350.847C350.927 390.99 351.307 391.66 351.987 392.18C352.687 392.7 353.597 392.96 354.717 392.96C355.757 392.96 356.577 392.73 357.177 392.27C357.777 391.81 358.077 391.23 358.077 390.53C358.077 389.81 357.757 389.28 357.117 388.94C356.477 388.58 355.487 388.23 354.147 387.89C352.927 387.57 351.927 387.25 351.147 386.93C350.387 386.59 349.727 386.1 349.167 385.46C348.627 384.8 348.357 383.94 348.357 382.88C348.357 382.04 348.607 381.27 349.107 380.57C349.607 379.87 350.317 379.32 351.237 378.92C352.157 378.5 353.207 378.29 354.387 378.29C356.207 378.29 357.677 378.75 358.797 379.67C359.917 380.59 360.517 381.85 360.597 383.45H357.867C357.807 382.59 357.457 381.9 356.817 381.38C356.197 380.86 355.357 380.6 354.297 380.6C353.317 380.6 352.537 380.81 351.957 381.23C351.377 381.65 351.087 382.2 351.087 382.88C351.087 383.42 351.257 383.87 351.597 384.23C351.957 384.57 352.397 384.85 352.917 385.07C353.457 385.27 354.197 385.5 355.137 385.76C356.317 386.08 357.277 386.4 358.017 386.72C358.757 387.02 359.387 387.48 359.907 388.1C360.447 388.72 360.727 389.53 360.747 390.53C360.747 391.43 360.497 392.24 359.997 392.96C359.497 393.68 358.787 394.25 357.867 394.67C356.967 395.07 355.927 395.27 354.747 395.27ZM363.581 386.72C363.581 385.04 363.921 383.57 364.601 382.31C365.281 381.03 366.211 380.04 367.391 379.34C368.591 378.64 369.921 378.29 371.381 378.29C372.821 378.29 374.071 378.6 375.131 379.22C376.191 379.84 376.981 380.62 377.501 381.56V378.56H380.261V395H377.501V391.94C376.961 392.9 376.151 393.7 375.071 394.34C374.011 394.96 372.771 395.27 371.351 395.27C369.891 395.27 368.571 394.91 367.391 394.19C366.211 393.47 365.281 392.46 364.601 391.16C363.921 389.86 363.581 388.38 363.581 386.72ZM377.501 386.75C377.501 385.51 377.251 384.43 376.751 383.51C376.251 382.59 375.571 381.89 374.711 381.41C373.871 380.91 372.941 380.66 371.921 380.66C370.901 380.66 369.971 380.9 369.131 381.38C368.291 381.86 367.621 382.56 367.121 383.48C366.621 384.4 366.371 385.48 366.371 386.72C366.371 387.98 366.621 389.08 367.121 390.02C367.621 390.94 368.291 391.65 369.131 392.15C369.971 392.63 370.901 392.87 371.921 392.87C372.941 392.87 373.871 392.63 374.711 392.15C375.571 391.65 376.251 390.94 376.751 390.02C377.251 389.08 377.501 387.99 377.501 386.75ZM387.604 372.8V395H384.874V372.8H387.604ZM407.257 386.15C407.257 386.67 407.227 387.22 407.167 387.8H394.027C394.127 389.42 394.677 390.69 395.677 391.61C396.697 392.51 397.927 392.96 399.367 392.96C400.547 392.96 401.527 392.69 402.307 392.15C403.107 391.59 403.667 390.85 403.987 389.93H406.927C406.487 391.51 405.607 392.8 404.287 393.8C402.967 394.78 401.327 395.27 399.367 395.27C397.807 395.27 396.407 394.92 395.167 394.22C393.947 393.52 392.987 392.53 392.287 391.25C391.587 389.95 391.237 388.45 391.237 386.75C391.237 385.05 391.577 383.56 392.257 382.28C392.937 381 393.887 380.02 395.107 379.34C396.347 378.64 397.767 378.29 399.367 378.29C400.927 378.29 402.307 378.63 403.507 379.31C404.707 379.99 405.627 380.93 406.267 382.13C406.927 383.31 407.257 384.65 407.257 386.15ZM404.437 385.58C404.437 384.54 404.207 383.65 403.747 382.91C403.287 382.15 402.657 381.58 401.857 381.2C401.077 380.8 400.207 380.6 399.247 380.6C397.867 380.6 396.687 381.04 395.707 381.92C394.747 382.8 394.197 384.02 394.057 385.58H404.437Z" fill="#46EBE3"/>
</g>
<path d="M312.31 342.89C315.19 340.49 317.485 338.495 319.195 336.905C320.905 335.285 322.33 333.605 323.47 331.865C324.61 330.125 325.18 328.415 325.18 326.735C325.18 325.205 324.82 324.005 324.1 323.135C323.38 322.265 322.27 321.83 320.77 321.83C319.27 321.83 318.115 322.34 317.305 323.36C316.495 324.35 316.075 325.715 316.045 327.455H309.925C310.045 323.855 311.11 321.125 313.12 319.265C315.16 317.405 317.74 316.475 320.86 316.475C324.28 316.475 326.905 317.39 328.735 319.22C330.565 321.02 331.48 323.405 331.48 326.375C331.48 328.715 330.85 330.95 329.59 333.08C328.33 335.21 326.89 337.07 325.27 338.66C323.65 340.22 321.535 342.11 318.925 344.33H332.2V349.55H309.97V344.87L312.31 342.89ZM358.22 322.64H343.64V330.335C344.27 329.555 345.17 328.925 346.34 328.445C347.51 327.935 348.755 327.68 350.075 327.68C352.475 327.68 354.44 328.205 355.97 329.255C357.5 330.305 358.61 331.655 359.3 333.305C359.99 334.925 360.335 336.665 360.335 338.525C360.335 341.975 359.345 344.75 357.365 346.85C355.415 348.95 352.625 350 348.995 350C345.575 350 342.845 349.145 340.805 347.435C338.765 345.725 337.61 343.49 337.34 340.73H343.46C343.73 341.93 344.33 342.89 345.26 343.61C346.22 344.33 347.435 344.69 348.905 344.69C350.675 344.69 352.01 344.135 352.91 343.025C353.81 341.915 354.26 340.445 354.26 338.615C354.26 336.755 353.795 335.345 352.865 334.385C351.965 333.395 350.63 332.9 348.86 332.9C347.6 332.9 346.55 333.215 345.71 333.845C344.87 334.475 344.27 335.315 343.91 336.365H337.88V317.105H358.22V322.64ZM364.41 325.25C364.41 322.97 365.07 321.185 366.39 319.895C367.74 318.605 369.465 317.96 371.565 317.96C373.665 317.96 375.375 318.605 376.695 319.895C378.045 321.185 378.72 322.97 378.72 325.25C378.72 327.56 378.045 329.36 376.695 330.65C375.375 331.94 373.665 332.585 371.565 332.585C369.465 332.585 367.74 331.94 366.39 330.65C365.07 329.36 364.41 327.56 364.41 325.25ZM393.3 318.5L375.615 350H369.495L387.135 318.5H393.3ZM371.52 321.74C369.87 321.74 369.045 322.91 369.045 325.25C369.045 327.62 369.87 328.805 371.52 328.805C372.33 328.805 372.96 328.52 373.41 327.95C373.86 327.35 374.085 326.45 374.085 325.25C374.085 322.91 373.23 321.74 371.52 321.74ZM384.165 343.205C384.165 340.895 384.825 339.11 386.145 337.85C387.495 336.56 389.22 335.915 391.32 335.915C393.42 335.915 395.115 336.56 396.405 337.85C397.725 339.11 398.385 340.895 398.385 343.205C398.385 345.515 397.725 347.315 396.405 348.605C395.115 349.895 393.42 350.54 391.32 350.54C389.19 350.54 387.465 349.895 386.145 348.605C384.825 347.315 384.165 345.515 384.165 343.205ZM391.275 339.695C389.565 339.695 388.71 340.865 388.71 343.205C388.71 345.575 389.565 346.76 391.275 346.76C392.955 346.76 393.795 345.575 393.795 343.205C393.795 340.865 392.955 339.695 391.275 339.695ZM315.739 380.21C315.739 381.95 315.139 383.4 313.939 384.56C312.759 385.7 310.949 386.27 308.509 386.27H304.489V395H301.759V374.09H308.509C310.869 374.09 312.659 374.66 313.879 375.8C315.119 376.94 315.739 378.41 315.739 380.21ZM308.509 384.02C310.029 384.02 311.149 383.69 311.869 383.03C312.589 382.37 312.949 381.43 312.949 380.21C312.949 377.63 311.469 376.34 308.509 376.34H304.489V384.02H308.509ZM321.862 381.23C322.342 380.29 323.022 379.56 323.902 379.04C324.802 378.52 325.892 378.26 327.172 378.26V381.08H326.452C323.392 381.08 321.862 382.74 321.862 386.06V395H319.132V378.56H321.862V381.23ZM345.324 386.15C345.324 386.67 345.294 387.22 345.234 387.8H332.094C332.194 389.42 332.744 390.69 333.744 391.61C334.764 392.51 335.994 392.96 337.434 392.96C338.614 392.96 339.594 392.69 340.374 392.15C341.174 391.59 341.734 390.85 342.054 389.93H344.994C344.554 391.51 343.674 392.8 342.354 393.8C341.034 394.78 339.394 395.27 337.434 395.27C335.874 395.27 334.474 394.92 333.234 394.22C332.014 393.52 331.054 392.53 330.354 391.25C329.654 389.95 329.304 388.45 329.304 386.75C329.304 385.05 329.644 383.56 330.324 382.28C331.004 381 331.954 380.02 333.174 379.34C334.414 378.64 335.834 378.29 337.434 378.29C338.994 378.29 340.374 378.63 341.574 379.31C342.774 379.99 343.694 380.93 344.334 382.13C344.994 383.31 345.324 384.65 345.324 386.15ZM342.504 385.58C342.504 384.54 342.274 383.65 341.814 382.91C341.354 382.15 340.724 381.58 339.924 381.2C339.144 380.8 338.274 380.6 337.314 380.6C335.934 380.6 334.754 381.04 333.774 381.92C332.814 382.8 332.264 384.02 332.124 385.58H342.504ZM354.747 395.27C353.487 395.27 352.357 395.06 351.357 394.64C350.357 394.2 349.567 393.6 348.987 392.84C348.407 392.06 348.087 391.17 348.027 390.17H350.847C350.927 390.99 351.307 391.66 351.987 392.18C352.687 392.7 353.597 392.96 354.717 392.96C355.757 392.96 356.577 392.73 357.177 392.27C357.777 391.81 358.077 391.23 358.077 390.53C358.077 389.81 357.757 389.28 357.117 388.94C356.477 388.58 355.487 388.23 354.147 387.89C352.927 387.57 351.927 387.25 351.147 386.93C350.387 386.59 349.727 386.1 349.167 385.46C348.627 384.8 348.357 383.94 348.357 382.88C348.357 382.04 348.607 381.27 349.107 380.57C349.607 379.87 350.317 379.32 351.237 378.92C352.157 378.5 353.207 378.29 354.387 378.29C356.207 378.29 357.677 378.75 358.797 379.67C359.917 380.59 360.517 381.85 360.597 383.45H357.867C357.807 382.59 357.457 381.9 356.817 381.38C356.197 380.86 355.357 380.6 354.297 380.6C353.317 380.6 352.537 380.81 351.957 381.23C351.377 381.65 351.087 382.2 351.087 382.88C351.087 383.42 351.257 383.87 351.597 384.23C351.957 384.57 352.397 384.85 352.917 385.07C353.457 385.27 354.197 385.5 355.137 385.76C356.317 386.08 357.277 386.4 358.017 386.72C358.757 387.02 359.387 387.48 359.907 388.1C360.447 388.72 360.727 389.53 360.747 390.53C360.747 391.43 360.497 392.24 359.997 392.96C359.497 393.68 358.787 394.25 357.867 394.67C356.967 395.07 355.927 395.27 354.747 395.27ZM363.581 386.72C363.581 385.04 363.921 383.57 364.601 382.31C365.281 381.03 366.211 380.04 367.391 379.34C368.591 378.64 369.921 378.29 371.381 378.29C372.821 378.29 374.071 378.6 375.131 379.22C376.191 379.84 376.981 380.62 377.501 381.56V378.56H380.261V395H377.501V391.94C376.961 392.9 376.151 393.7 375.071 394.34C374.011 394.96 372.771 395.27 371.351 395.27C369.891 395.27 368.571 394.91 367.391 394.19C366.211 393.47 365.281 392.46 364.601 391.16C363.921 389.86 363.581 388.38 363.581 386.72ZM377.501 386.75C377.501 385.51 377.251 384.43 376.751 383.51C376.251 382.59 375.571 381.89 374.711 381.41C373.871 380.91 372.941 380.66 371.921 380.66C370.901 380.66 369.971 380.9 369.131 381.38C368.291 381.86 367.621 382.56 367.121 383.48C366.621 384.4 366.371 385.48 366.371 386.72C366.371 387.98 366.621 389.08 367.121 390.02C367.621 390.94 368.291 391.65 369.131 392.15C369.971 392.63 370.901 392.87 371.921 392.87C372.941 392.87 373.871 392.63 374.711 392.15C375.571 391.65 376.251 390.94 376.751 390.02C377.251 389.08 377.501 387.99 377.501 386.75ZM387.604 372.8V395H384.874V372.8H387.604ZM407.257 386.15C407.257 386.67 407.227 387.22 407.167 387.8H394.027C394.127 389.42 394.677 390.69 395.677 391.61C396.697 392.51 397.927 392.96 399.367 392.96C400.547 392.96 401.527 392.69 402.307 392.15C403.107 391.59 403.667 390.85 403.987 389.93H406.927C406.487 391.51 405.607 392.8 404.287 393.8C402.967 394.78 401.327 395.27 399.367 395.27C397.807 395.27 396.407 394.92 395.167 394.22C393.947 393.52 392.987 392.53 392.287 391.25C391.587 389.95 391.237 388.45 391.237 386.75C391.237 385.05 391.577 383.56 392.257 382.28C392.937 381 393.887 380.02 395.107 379.34C396.347 378.64 397.767 378.29 399.367 378.29C400.927 378.29 402.307 378.63 403.507 379.31C404.707 379.99 405.627 380.93 406.267 382.13C406.927 383.31 407.257 384.65 407.257 386.15ZM404.437 385.58C404.437 384.54 404.207 383.65 403.747 382.91C403.287 382.15 402.657 381.58 401.857 381.2C401.077 380.8 400.207 380.6 399.247 380.6C397.867 380.6 396.687 381.04 395.707 381.92C394.747 382.8 394.197 384.02 394.057 385.58H404.437Z" fill="#46EBE3"/>
<defs>
<filter id="filter0_f_222_321" x="44" y="44" width="640" height="640" filterUnits="userSpaceOnUse" color-interpolation-filters="sRGB">
<feFlood flood-opacity="0" result="BackgroundImageFix"/>
<feBlend mode="normal" in="SourceGraphic" in2="BackgroundImageFix" result="shape"/>
<feGaussianBlur stdDeviation="30" result="effect1_foregroundBlur_222_321"/>
</filter>
<filter id="filter1_f_222_321" x="251.759" y="266.475" width="205.498" height="178.795" filterUnits="userSpaceOnUse" color-interpolation-filters="sRGB">
<feFlood flood-opacity="0" result="BackgroundImageFix"/>
<feBlend mode="normal" in="SourceGraphic" in2="BackgroundImageFix" result="shape"/>
<feGaussianBlur stdDeviation="25" result="effect1_foregroundBlur_222_321"/>
</filter>
</defs>
</svg>
